<svg width="316" height="368" viewBox="0 0 316 368" fill="none" xmlns="http://www.w3.org/2000/svg">
<g clip-path="url(#clip0_1_782)">
<!-- <rect width="316" height="368" fill="white"/> -->
<path d="M140.68 310.928L123.784 237.116C123.714 236.834 123.855 236.551 124.067 236.551H166.766C166.978 236.551 167.049 236.834 166.978 237.116L150.082 310.928C148.527 318.133 142.306 318.133 140.68 310.928Z" fill="#CCB7A5"/>
<path d="M167.049 237.116L150.153 310.928C149.305 314.531 147.396 316.296 145.417 316.296V236.481H166.766C166.978 236.551 167.119 236.834 167.049 237.116Z" fill="#7D572E"/>
<path d="M186.136 315.237L152.769 236.622C152.769 236.551 152.698 236.481 152.769 236.41C152.769 236.339 152.839 236.269 152.839 236.198C152.91 236.127 152.981 236.057 153.051 236.057C153.122 236.057 153.193 235.986 153.264 235.986H237.742C237.813 235.986 237.884 235.986 237.954 235.986C238.025 235.986 238.096 236.057 238.166 236.127C238.237 236.198 238.237 236.269 238.237 236.339C238.237 236.41 238.237 236.481 238.166 236.551L204.799 315.166C201.618 322.936 189.388 322.936 186.136 315.237Z" fill="#714E29"/>
<path d="M238.237 236.622L204.87 315.237C203.244 319.051 199.356 320.958 195.468 320.958V235.986H237.742C237.813 235.986 237.884 235.986 237.954 236.057C238.025 236.057 238.096 236.127 238.166 236.198C238.237 236.269 238.237 236.339 238.237 236.41C238.308 236.481 238.308 236.551 238.237 236.622Z" fill="#49301C"/>
<path d="M159.343 322.018L142.447 236.551C142.377 236.198 142.518 235.916 142.73 235.916H185.429C185.641 235.916 185.712 236.269 185.712 236.551L168.816 322.018C167.19 330.352 161.04 330.352 159.343 322.018Z" fill="#49301C"/>
<path d="M185.712 236.551L168.816 322.018C167.968 326.185 166.059 328.304 164.08 328.233V235.916H185.429C185.641 235.916 185.783 236.269 185.712 236.551Z" fill="#876036"/>
<path d="M103.495 339.111L77.1973 236.41C77.1266 235.986 77.268 235.562 77.5508 235.562H144.215C144.498 235.562 144.71 235.986 144.568 236.41L118.27 339.111C115.725 349.07 106.04 349.07 103.495 339.111Z" fill="#714E29"/>
<path d="M144.639 236.339L118.341 339.04C117.068 344.055 114.029 346.527 110.918 346.527V235.562H144.215C144.498 235.562 144.71 235.986 144.639 236.339Z" fill="#49301C"/>
<path d="M74.5817 310.363L46.7991 236.551C46.7991 236.481 46.7991 236.41 46.7991 236.339C46.7991 236.269 46.7991 236.198 46.8698 236.127C46.9405 236.057 46.9405 235.986 47.0112 235.986C47.0819 235.986 47.1526 235.916 47.2233 235.916H117.634C117.705 235.916 117.775 235.916 117.846 235.986C117.917 235.986 117.987 236.057 117.987 236.127C118.058 236.198 118.058 236.269 118.058 236.339C118.058 236.41 118.058 236.481 118.058 236.551L90.2049 310.363C89.6394 311.917 88.5083 313.33 87.1651 314.248C85.7512 315.237 84.1253 315.731 82.4286 315.731C80.732 315.731 79.106 315.237 77.6922 314.248C76.2076 313.33 75.1472 311.917 74.5817 310.363Z" fill="#714E29"/>
<path d="M118.058 236.551L90.2756 310.363C89.7101 311.988 88.6497 313.33 87.2358 314.319C85.8219 315.307 84.196 315.802 82.4993 315.802V235.916H117.705C117.775 235.916 117.846 235.916 117.917 235.986C117.987 235.986 118.058 236.057 118.058 236.127C118.129 236.198 118.129 236.269 118.129 236.339C118.058 236.41 118.058 236.481 118.058 236.551Z" fill="#49301C"/>
<path d="M257.324 290.727L240.429 236.339C240.429 236.269 240.429 236.269 240.429 236.198C240.429 236.127 240.429 236.127 240.499 236.057C240.499 235.986 240.57 235.986 240.57 235.986C240.641 235.986 240.641 235.916 240.711 235.916H283.41C283.481 235.916 283.481 235.916 283.552 235.986C283.622 235.986 283.622 236.057 283.622 236.057C283.622 236.127 283.693 236.127 283.693 236.198C283.693 236.269 283.693 236.269 283.693 236.339L266.797 290.727C265.101 296.025 258.95 296.025 257.324 290.727Z" fill="#A87349"/>
<path d="M283.622 236.339L266.727 290.727C265.878 293.34 263.97 294.683 261.99 294.683V235.916H283.34C283.41 235.916 283.41 235.916 283.481 235.986C283.552 235.986 283.552 236.057 283.552 236.057C283.552 236.127 283.622 236.127 283.622 236.198C283.693 236.269 283.693 236.269 283.622 236.339Z" fill="#EBCEBB"/>
<path d="M133.045 301.746L162.666 235.845C162.666 235.774 162.736 235.704 162.736 235.633C162.736 235.562 162.736 235.492 162.666 235.421C162.595 235.35 162.595 235.28 162.524 235.28C162.454 235.28 162.383 235.209 162.312 235.209H91.9723C91.9016 235.209 91.8309 235.209 91.7602 235.28C91.6895 235.35 91.6188 235.35 91.6188 235.421C91.6188 235.492 91.5481 235.562 91.5481 235.633C91.5481 235.704 91.5481 235.774 91.6188 235.845L121.239 301.746C121.734 302.876 122.583 303.865 123.643 304.571C124.703 305.278 125.905 305.631 127.178 305.631C128.45 305.631 129.652 305.278 130.712 304.571C131.702 303.936 132.55 302.947 133.045 301.746Z" fill="#876036"/>
<path d="M127.46 235.28V305.631C128.733 305.631 129.935 305.278 130.995 304.571C132.055 303.865 132.904 302.876 133.399 301.746L163.019 235.845C163.019 235.774 163.019 235.704 163.019 235.633C163.019 235.562 162.949 235.492 162.949 235.421C162.878 235.35 162.878 235.35 162.807 235.28C162.736 235.28 162.666 235.209 162.595 235.209H127.46V235.28Z" fill="#714C2C"/>
<path d="M223.604 302.523L193.983 236.622C193.983 236.551 193.912 236.481 193.912 236.41C193.912 236.339 193.912 236.269 193.983 236.198C194.054 236.127 194.054 236.057 194.124 236.057C194.195 236.057 194.266 235.986 194.336 235.986H264.677C264.747 235.986 264.818 235.986 264.889 236.057C264.959 236.057 265.03 236.127 265.03 236.198C265.101 236.269 265.101 236.339 265.101 236.41C265.101 236.481 265.101 236.551 265.03 236.622L235.409 302.523C234.915 303.653 234.066 304.642 233.006 305.348C231.945 306.055 230.744 306.408 229.471 306.408C228.199 306.408 226.997 306.055 225.936 305.348C224.947 304.642 224.098 303.724 223.604 302.523Z" fill="#714E29"/>
<path d="M229.188 235.986V306.408C227.916 306.408 226.714 306.055 225.654 305.348C224.593 304.642 223.745 303.653 223.25 302.523L193.63 236.622C193.63 236.551 193.559 236.481 193.559 236.41C193.559 236.339 193.559 236.269 193.63 236.198C193.7 236.127 193.7 236.057 193.771 236.057C193.842 236.057 193.912 235.986 193.983 235.986H229.188Z" fill="#876036"/>
<path d="M49.2734 280.203L29.5499 236.198C29.5499 236.127 29.5499 236.127 29.5499 236.057C29.5499 235.986 29.5499 235.986 29.6206 235.916C29.6206 235.845 29.6913 235.845 29.6913 235.845C29.762 235.845 29.762 235.774 29.8327 235.845H76.7731C76.8438 235.845 76.8438 235.845 76.9145 235.916C76.9852 235.916 76.9852 235.986 76.9852 235.986C76.9852 236.057 77.0559 236.057 77.0559 236.127C77.0559 236.198 77.0559 236.198 77.0559 236.269L57.2617 280.203C56.9083 280.98 56.3427 281.615 55.6358 282.039C54.9288 282.463 54.0805 282.745 53.2322 282.745C52.3839 282.745 51.5356 282.534 50.8286 282.039C50.2631 281.615 49.6975 280.98 49.2734 280.203Z" fill="#A87349"/>
<path d="M53.0201 235.774V282.746C52.1718 282.746 51.3942 282.534 50.6872 282.039C49.9803 281.615 49.4148 280.909 49.0613 280.203L29.3378 236.198C29.3378 236.127 29.3378 236.127 29.3378 236.057C29.3378 235.986 29.3378 235.986 29.4085 235.916C29.4085 235.845 29.4792 235.845 29.5499 235.845C29.6206 235.845 29.6206 235.774 29.6913 235.774H53.0201Z" fill="#EBCEBB"/>
<path d="M292.671 229.559H23.3289V226.733C23.3289 224.12 24.3186 221.577 26.0859 219.741C27.8532 217.904 30.1861 216.845 32.6604 216.845H283.34C285.814 216.845 288.217 217.904 289.914 219.741C291.681 221.577 292.671 224.12 292.671 226.733V229.559Z" fill="#2EC635"/>
<path d="M292.671 229.205H23.3996C23.3996 230.971 24.1065 232.666 25.379 233.938C26.6515 235.209 28.3481 235.916 30.1154 235.916H285.955C287.723 235.916 289.419 235.209 290.692 233.938C291.894 232.666 292.671 230.971 292.671 229.205Z" fill="#316831"/>
<path d="M196.387 178.42L196.316 178.491C193.205 180.822 189.671 182.446 185.924 183.223C182.672 183.929 179.42 184.353 176.098 184.565C174.613 184.636 173.128 184.706 171.502 184.706C169.311 185.06 167.119 185.271 164.928 185.413C163.231 185.483 161.464 185.554 159.697 185.554H129.086V178.491H101.799V197.067C101.799 202.153 106.252 206.32 111.696 206.32H162.03C166.342 206.32 170.725 206.108 175.037 205.684C175.603 205.614 176.168 205.543 176.804 205.473C179.774 205.119 182.601 204.625 185.358 204.06C192.004 202.718 198.295 200.175 203.88 196.431C209.182 192.759 213.494 187.744 216.251 181.952C216.817 180.892 217.241 179.691 217.665 178.561L196.387 178.42Z" fill="#316831"/>
<path d="M207.556 134.98C200.133 122.761 187.903 118.311 183.662 116.969H183.591C188.752 113.932 192.923 109.482 195.68 104.184C199.002 97.7566 200.628 89.6338 200.628 79.8157C200.628 71.2691 199.356 63.9938 196.881 58.0606C194.407 52.1274 190.872 47.395 186.348 43.9339C181.541 40.3316 175.956 37.7182 170.089 36.3055C163.231 34.6103 156.233 33.8334 149.163 33.904C145.629 33.904 141.953 34.0453 138.064 34.2572H137.994C134.247 34.4691 130.288 34.8222 126.117 35.246C120.957 35.7405 116.149 36.3762 111.625 37.1531C110.777 37.1531 109.928 37.2944 109.151 37.5769C108.515 37.7888 107.878 38.142 107.313 38.4952C106.04 39.3428 105.051 40.5435 104.344 41.8856C103.637 43.2276 103.283 44.7109 103.283 46.2649V197.985C103.283 200.387 104.273 202.718 105.97 204.413C107.666 206.108 109.999 207.097 112.473 207.097H159.06C163.09 207.097 167.119 206.885 171.078 206.461C171.644 206.391 172.139 206.32 172.704 206.25C175.461 205.896 178.077 205.402 180.622 204.837C186.772 203.495 192.64 200.952 197.8 197.35C202.82 193.677 206.779 188.732 209.253 183.082C212.01 177.078 213.424 169.52 213.424 160.479C213.424 153.274 213.141 144.163 207.556 134.98ZM142.306 54.2464C143.72 54.0345 145.275 53.8933 146.972 53.752C151.072 53.4695 155.031 53.2576 158.848 53.2576C163.302 53.1869 167.685 53.6107 171.997 54.5996C175.32 55.3059 178.43 56.7892 181.046 58.9789C183.52 61.2391 185.358 64.1351 186.348 67.3136C187.479 70.8453 188.115 75.4364 188.115 81.0871C188.115 86.6672 187.55 91.1877 186.489 94.79C185.641 97.9685 183.874 100.935 181.541 103.266C179.279 105.385 176.451 106.798 173.411 107.433C170.937 107.998 168.392 108.281 165.918 108.422C164.716 108.493 163.514 108.493 162.242 108.493H161.817C159.767 108.846 157.717 109.129 155.596 109.199C154.395 109.27 153.193 109.27 151.92 109.27H126.683V56.0123C130.005 55.3059 133.399 54.8115 136.792 54.5996C138.63 54.4583 140.468 54.3171 142.306 54.2464ZM196.387 171.074C195.397 174.464 193.417 177.431 190.802 179.762C187.974 182.022 184.651 183.647 181.117 184.424C178.148 185.13 175.108 185.554 172.068 185.766C170.725 185.836 169.311 185.907 167.826 185.907C165.847 186.26 163.797 186.472 161.747 186.543C160.192 186.613 158.566 186.684 156.869 186.684H128.521V129.118H138.842V128.341H158.353C164.15 128.27 169.947 128.623 175.744 129.259C180.127 129.754 184.369 131.096 188.257 133.215C191.721 135.192 194.336 138.3 195.75 142.044C197.306 145.929 198.154 151.014 198.154 157.371C198.225 162.81 197.588 167.472 196.387 171.074Z" fill="#634A2B"/>
<path d="M198.225 157.301C198.225 162.881 197.659 167.472 196.457 171.074C195.468 174.464 193.488 177.431 190.872 179.762C188.045 182.022 184.722 183.647 181.187 184.424C178.218 185.13 175.179 185.554 172.139 185.766C170.796 185.836 169.382 185.907 167.897 185.907C168.957 185.766 169.947 185.554 170.866 185.271C174.401 184.494 177.723 182.94 180.551 180.61C183.238 178.279 185.146 175.312 186.136 171.922C187.338 168.249 187.903 163.658 187.903 158.148C187.903 151.791 187.126 146.706 185.5 142.821C184.086 139.148 181.4 136.04 178.006 133.992C174.118 131.873 169.877 130.531 165.494 130.036C159.697 129.33 153.9 129.047 148.103 129.118H138.913V128.341H158.424C164.221 128.27 170.018 128.623 175.815 129.259C180.198 129.754 184.439 131.096 188.328 133.215C191.721 135.192 194.407 138.3 195.821 142.044C197.447 145.858 198.225 150.944 198.225 157.301Z" fill="#634A2B"/>
<path d="M188.045 81.1578C188.045 86.7378 187.479 91.2583 186.419 94.8606C185.57 98.0391 183.803 101.006 181.47 103.337C179.208 105.456 176.38 106.868 173.34 107.504C170.866 108.069 168.321 108.352 165.847 108.493C164.645 108.564 163.443 108.564 162.171 108.564H161.747C162.171 108.493 162.666 108.422 163.09 108.281C166.13 107.645 168.957 106.233 171.22 104.114C173.553 101.783 175.249 98.8867 176.168 95.6376C177.299 92.0353 177.794 87.5148 177.794 81.9347C177.794 76.2134 177.229 71.6223 176.027 68.1612C175.037 64.9827 173.199 62.0867 170.725 59.8265C168.109 57.6368 165.069 56.1535 161.747 55.4472C157.434 54.529 152.981 54.0345 148.598 54.1052C146.548 54.1052 144.498 54.1758 142.377 54.2464C143.791 54.0345 145.346 53.8933 147.043 53.752C151.143 53.4695 155.102 53.2576 158.919 53.2576C163.373 53.1869 167.756 53.6107 172.068 54.5996C175.391 55.3059 178.501 56.7892 181.117 58.9789C183.591 61.2391 185.429 64.1351 186.419 67.3136C187.479 70.8453 188.045 75.4365 188.045 81.1578Z" fill="#634A2B"/>
<path d="M136.863 55.1647C139.125 54.5996 141.458 54.1758 143.791 54.0346C145.982 53.8933 149.87 54.1052 149.87 54.1052C149.87 54.1052 145.911 54.1052 144.922 54.1758C143.932 54.2465 142.377 54.3877 141.74 54.4584C141.104 54.529 140.185 54.6703 139.902 54.8115C139.549 54.8822 138.701 55.0234 138.559 55.0941C138.418 55.1647 137.923 55.2353 137.852 55.2353C137.782 55.2353 137.428 55.306 137.357 55.306L136.863 55.3766V55.1647Z" fill="#634A2B"/>
<path d="M217.877 134.203C210.455 121.984 198.225 117.534 193.912 116.192H193.842C199.002 113.155 203.173 108.705 205.93 103.407C209.253 96.9797 210.879 88.8568 210.879 79.0388C210.879 70.4921 209.606 63.2169 207.132 57.2837C204.94 51.7036 201.264 46.8299 196.599 43.157C191.791 39.5547 186.207 36.9413 180.339 35.5286C173.482 33.904 166.483 33.0564 159.485 33.1271C153.051 33.1271 145.911 33.4802 138.064 34.2572H137.994L136.438 34.3985C131.278 34.8929 126.471 35.5286 121.946 36.3056C121.098 36.3056 120.25 36.4468 119.472 36.7294C118.836 36.9413 118.2 37.2944 117.563 37.6476C116.291 38.4952 115.301 39.696 114.594 41.038C113.887 42.38 113.534 43.8633 113.534 45.4173V197.138C113.534 199.539 114.523 201.87 116.22 203.565C117.917 205.261 120.25 206.25 122.653 206.25H169.24C170.371 206.25 171.502 206.25 172.563 206.179C175.532 206.108 178.43 205.896 181.258 205.543C184.439 205.19 187.621 204.625 190.802 203.919C196.952 202.577 202.82 200.034 207.98 196.361C213 192.688 216.958 187.744 219.433 182.093C222.19 176.089 223.604 168.531 223.604 159.49C223.674 152.427 223.462 143.386 217.877 134.203ZM136.863 108.493V55.1647C138.63 54.7409 140.468 54.4584 142.306 54.1758C143.72 53.9639 145.275 53.8227 146.972 53.6814C151.072 53.3989 155.031 53.187 158.848 53.187C163.302 53.1163 167.685 53.5401 171.997 54.529C175.32 55.2353 178.43 56.7186 181.046 58.9789C183.52 61.2392 185.358 64.1351 186.348 67.3136C187.479 70.8453 188.115 75.4365 188.115 81.0871C188.115 86.6672 187.55 91.1877 186.489 94.79C185.641 97.9685 183.874 100.935 181.541 103.266C179.279 105.385 176.451 106.798 173.411 107.433C170.937 107.998 168.392 108.281 165.918 108.422C164.716 108.493 163.514 108.493 162.242 108.493H136.863ZM172.068 185.625C170.725 185.695 169.311 185.766 167.826 185.766H138.842V128.2H158.353C164.15 128.129 169.947 128.482 175.744 129.118C180.127 129.612 184.369 130.954 188.257 133.073C191.721 135.051 194.336 138.159 195.75 141.902C197.306 145.787 198.154 150.873 198.154 157.23C198.154 162.81 197.588 167.401 196.387 171.003C195.397 174.394 193.417 177.36 190.802 179.691C187.974 181.952 184.651 183.576 181.117 184.353C178.218 185.06 175.179 185.554 172.068 185.625Z" fill="#33CC3A"/>
<path d="M190.448 38.0008C190.448 38.0008 191.65 37.4357 191.721 34.6104C191.792 31.7851 193.7 35.7405 193.7 35.7405C194.195 36.5175 194.407 37.4357 194.336 38.354C194.124 39.5547 194.336 38.9897 194.336 38.9897C194.336 38.9897 197.447 38.5659 198.013 35.7405C198.578 32.9858 199.356 36.235 199.356 36.235C199.356 36.235 199.638 37.7183 198.79 40.6849C198.013 43.7221 198.225 42.2388 198.225 42.2388C198.225 42.2388 200.275 39.9785 202.961 40.8261C205.647 41.6031 205.294 41.815 205.294 41.815C205.294 41.815 205.789 42.0269 205.294 42.2388C204.799 42.4507 204.375 42.0975 203.668 42.6626C203.173 43.0158 202.678 43.4396 202.254 43.8634C200.557 45.4173 200.911 45.7705 200.275 46.9006C199.638 48.0307 189.529 38.9897 189.529 38.9897L190.448 38.0008Z" fill="#33CC3A"/>
<path d="M90.2756 217.692H31.3172C37.3262 207.38 58.6756 173.476 89.8515 173.476L90.2756 217.692Z" fill="#3E8E34"/>
<path d="M148.456 217.692H90.2756L89.9221 173.476C90.417 173.476 90.9826 173.476 91.4774 173.476C121.593 174.535 142.094 206.815 148.456 217.692Z" fill="#385E03"/>
<path d="M229.754 169.52V216.986H177.441C179.986 191.346 200.487 171.71 224.876 169.52C226.502 169.379 228.128 169.52 229.754 169.52Z" fill="#DE9251"/>
<path d="M281.36 216.986H255.557H229.754V169.52C254.921 169.732 277.967 189.58 281.36 216.986Z" fill="#CF690E"/>
<path d="M152.839 197.42V217.692H94.2345C100.314 212.96 121.664 197.42 152.839 197.42Z" fill="#84CD66"/>
<path d="M211.374 217.692H152.769V197.42C153.264 197.42 153.758 197.42 154.253 197.42C184.51 197.915 205.011 212.677 211.374 217.692Z" fill="#1B8F08"/>
<path d="M68.7141 171.357C64.5432 171.357 61.1499 174.747 61.1499 178.914V195.725C61.1499 199.893 64.5432 203.283 68.7141 203.283C72.885 203.283 76.2783 199.893 76.2783 195.725V178.914C76.349 174.747 72.9557 171.357 68.7141 171.357Z" fill="#24521D"/>
<path d="M60.5136 190.145C60.5136 188.238 58.9584 186.755 57.1204 186.755C55.2116 186.755 53.7271 188.309 53.7271 190.145V197.985C53.7271 199.893 55.2823 201.376 57.1204 201.376C59.0291 201.376 60.5136 199.822 60.5136 197.985V190.145Z" fill="#24521D"/>
<path d="M59.3826 193.889V204.554C59.3826 204.554 59.3826 207.38 61.362 208.015C61.362 208.015 63.4828 208.227 63.8362 210.982V218.398H65.6036V211.053C65.6036 211.053 65.6743 208.51 64.1897 207.592L62.281 206.532C62.281 206.532 61.362 206.461 61.1499 204.484V193.818H59.3826V193.889Z" fill="#712E76"/>
<path d="M68.9969 181.104C68.9969 179.197 67.4416 177.714 65.6036 177.714C63.6949 177.714 62.2103 179.268 62.2103 181.104V188.944C62.2103 190.851 63.7656 192.335 65.6036 192.335C67.5123 192.335 68.9969 190.781 68.9969 188.944V181.104Z" fill="#5C8E16"/>
<path d="M58.3221 181.74C58.3221 179.833 56.7669 178.349 54.9289 178.349C53.0201 178.349 51.5356 179.903 51.5356 181.74V189.58C51.5356 191.487 53.0908 192.97 54.9289 192.97C56.8376 192.97 58.3221 191.417 58.3221 189.58V181.74Z" fill="#5C8E16"/>
<path d="M65.957 180.115C65.957 177.431 63.8362 175.312 61.1499 175.312C58.4635 175.312 56.3427 177.431 56.3427 180.115V193.324C56.3427 196.008 58.4635 198.127 61.1499 198.127C63.8362 198.127 65.957 196.008 65.957 193.324V180.115Z" fill="#A1F181"/>
<path d="M66.664 203.777V197.773H68.7141V203.777C68.7141 204.342 68.502 204.907 68.0779 205.331C67.3002 205.967 66.2398 205.473 65.4622 206.108C65.1087 206.391 64.6846 206.956 64.6846 208.369H62.7051C62.7051 206.108 63.3414 205.261 63.9069 204.907C64.8259 204.342 66.5226 204.625 66.664 203.989C66.664 203.919 66.664 203.848 66.664 203.777Z" fill="#712E76"/>
<path d="M73.0971 194.03V200.175C73.0971 200.175 72.885 201.941 71.4711 202.082L68.7848 202.223V203H71.5418C71.5418 203 73.8747 203.142 73.9454 200.175V194.03H73.0971Z" fill="#712E76"/>
<path d="M55.7065 192.97V199.116C55.7065 199.116 55.9186 200.881 57.3324 201.023L60.0188 201.164V201.941H57.2618C57.2618 201.941 54.9289 202.082 54.8582 199.116V192.97H55.7065Z" fill="#712E76"/>
<path d="M76.5611 191.346V195.513C76.5611 195.513 76.4197 196.714 75.3593 196.855L73.3092 196.926V197.42H75.3593C75.3593 197.42 77.0559 197.491 77.1266 195.513V191.346H76.5611Z" fill="#712E76"/>
<path d="M72.6729 188.732C71.2591 188.732 70.128 189.863 70.128 191.275V192.264C70.128 193.677 71.2591 194.807 72.6729 194.807C74.0868 194.807 75.2179 193.677 75.2179 192.264V191.275C75.2179 189.863 74.0868 188.732 72.6729 188.732Z" fill="#42DA2B"/>
<path d="M68.1485 188.379C66.7347 188.379 65.6036 189.509 65.6036 190.922V196.502C65.6036 197.915 66.7347 199.045 68.1485 199.045C69.5624 199.045 70.6935 197.915 70.6935 196.502V190.922C70.7642 189.509 69.5624 188.379 68.1485 188.379Z" fill="#42DA2B"/>
<path d="M81.7217 186.684C81.7217 185.059 80.3785 183.788 78.7526 183.788C77.1266 183.788 75.7834 185.13 75.7834 186.684V199.257C75.7834 200.881 77.1266 202.153 78.7526 202.153C80.3785 202.153 81.7217 200.811 81.7217 199.257V186.684Z" fill="#A1F181"/>
<path d="M57.4738 187.037C57.4738 184.565 55.4237 182.517 52.9494 182.517C50.4752 182.517 48.425 184.565 48.425 187.037V194.03C48.425 196.573 50.4752 198.55 52.9494 198.55C55.4237 198.55 57.4738 196.502 57.4738 194.03V187.037Z" fill="#A1F181"/>
<path d="M59.9481 180.327C59.9481 180.045 59.736 179.762 59.3826 179.762C59.0998 179.762 58.817 179.974 58.817 180.327V184.636C58.817 184.918 59.0291 185.201 59.3826 185.201C59.6653 185.201 59.9481 184.989 59.9481 184.636V180.327Z" fill="#61B756"/>
<path d="M69.9866 191.84C69.9866 191.558 69.7745 191.275 69.421 191.275C69.0676 191.275 68.8555 191.487 68.8555 191.84V194.524C68.8555 194.807 69.0676 195.089 69.421 195.089C69.7745 195.089 69.9866 194.878 69.9866 194.524V191.84Z" fill="#35732B"/>
<path d="M64.8259 183.859C64.8259 183.576 64.6139 183.294 64.2604 183.294C63.9776 183.294 63.6949 183.506 63.6949 183.859V193.889C63.6949 194.171 63.9069 194.454 64.2604 194.454C64.5432 194.454 64.8259 194.242 64.8259 193.889V183.859Z" fill="#61B756"/>
<path d="M55.353 186.755C55.353 186.472 55.1409 186.19 54.7875 186.19C54.5047 186.19 54.2219 186.402 54.2219 186.755V192.476C54.2219 192.759 54.434 193.041 54.7875 193.041C55.0702 193.041 55.353 192.829 55.353 192.476V186.755Z" fill="#61B756"/>
<path d="M80.732 190.145C80.732 189.863 80.5199 189.58 80.1664 189.58C79.813 189.58 79.6009 189.792 79.6009 190.145V195.866C79.6009 196.149 79.813 196.431 80.1664 196.431C80.5199 196.431 80.732 196.22 80.732 195.866V190.145Z" fill="#61B756"/>
<path d="M78.5405 194.101C78.5405 193.818 78.3284 193.536 77.9749 193.536C77.6215 193.536 77.4094 193.747 77.4094 194.101V199.822C77.4094 200.104 77.6215 200.387 77.9749 200.387C78.3284 200.387 78.5405 200.175 78.5405 199.822V194.101Z" fill="#61B756"/>
<path d="M54.7875 194.595C55.0702 194.595 55.353 194.383 55.353 194.03C55.353 193.747 55.1409 193.465 54.7875 193.465C54.5047 193.465 54.2219 193.677 54.2219 194.03C54.2926 194.383 54.5047 194.595 54.7875 194.595Z" fill="#61B756"/>
<path d="M69.421 196.714C69.7038 196.714 69.9866 196.502 69.9866 196.149C69.9866 195.866 69.7745 195.584 69.421 195.584C69.0676 195.584 68.8555 195.796 68.8555 196.149C68.9262 196.431 69.1383 196.714 69.421 196.714Z" fill="#34732B"/>
<path d="M253.366 202.435C257.536 202.435 260.93 199.045 260.93 194.878V178.067C260.93 173.899 257.536 170.509 253.366 170.509C249.195 170.509 245.801 173.899 245.801 178.067V194.878C245.801 199.045 249.195 202.435 253.366 202.435Z" fill="#24521D"/>
<path d="M261.637 197.067C261.637 198.974 263.192 200.458 265.03 200.458C266.868 200.458 268.423 198.904 268.423 197.067V189.297C268.423 187.39 266.868 185.907 265.03 185.907C263.192 185.907 261.637 187.461 261.637 189.297V197.067Z" fill="#24521D"/>
<path d="M262.697 193.041V203.707C262.697 203.707 262.697 206.532 260.718 207.168C260.718 207.168 258.597 207.38 258.243 210.134V217.551H256.476V210.134C256.476 210.134 256.405 207.592 257.89 206.673L259.799 205.614C259.799 205.614 260.718 205.543 260.93 203.565V192.9H262.697V193.041Z" fill="#712E76"/>
<path d="M253.083 188.026C253.083 189.933 254.638 191.417 256.476 191.417C258.314 191.417 259.869 189.863 259.869 188.026V180.186C259.869 178.279 258.314 176.795 256.476 176.795C254.638 176.795 253.083 178.349 253.083 180.186V188.026Z" fill="#5C8E16"/>
<path d="M263.828 188.732C263.828 190.64 265.383 192.123 267.221 192.123C269.059 192.123 270.615 190.569 270.615 188.732V180.892C270.615 178.985 269.059 177.502 267.221 177.502C265.383 177.502 263.828 179.056 263.828 180.892V188.732Z" fill="#5C8E16"/>
<path d="M256.123 192.476C256.123 195.16 258.243 197.279 260.93 197.279C263.616 197.279 265.737 195.16 265.737 192.476V179.268C265.737 176.583 263.616 174.464 260.93 174.464C258.243 174.464 256.123 176.583 256.123 179.268V192.476Z" fill="#42DA2B"/>
<path d="M255.204 203.071V197.067H253.153V203.071C253.153 203.636 253.366 204.201 253.79 204.625C254.567 205.261 255.628 204.766 256.405 205.402C256.759 205.684 257.183 206.25 257.183 207.662H259.162C259.162 205.402 258.526 204.554 257.961 204.201C256.971 203.636 255.345 203.919 255.204 203.283C255.204 203.212 255.204 203.142 255.204 203.071Z" fill="#712E76"/>
<path d="M249.053 193.182V199.327C249.053 199.327 249.265 201.093 250.679 201.235L253.366 201.376V202.153H250.609C250.609 202.153 248.276 202.294 248.205 199.327V193.182H249.053Z" fill="#712E76"/>
<path d="M266.373 192.123V198.268C266.373 198.268 266.161 200.034 264.747 200.175L262.061 200.316V201.093H264.818C264.818 201.093 267.151 201.235 267.221 198.268V192.123H266.373Z" fill="#712E76"/>
<path d="M245.589 190.498V194.666C245.589 194.666 245.731 195.866 246.791 196.008L248.841 196.078V196.573H246.72C246.72 196.573 245.024 196.643 244.953 194.666V190.498H245.589Z" fill="#712E76"/>
<path d="M249.477 193.959C250.891 193.959 252.022 192.829 252.022 191.416V190.428C252.022 189.015 250.891 187.885 249.477 187.885C248.064 187.885 246.932 189.015 246.932 190.428V191.416C246.862 192.829 248.064 193.959 249.477 193.959Z" fill="#42DA2B"/>
<path d="M253.931 198.197C255.345 198.197 256.476 197.067 256.476 195.655V190.074C256.476 188.662 255.345 187.532 253.931 187.532C252.517 187.532 251.386 188.662 251.386 190.074V195.655C251.315 196.997 252.517 198.197 253.931 198.197Z" fill="#42DA2B"/>
<path d="M241.136 198.409C241.136 200.034 242.479 201.305 244.105 201.305C245.731 201.305 247.074 199.963 247.074 198.409V185.836C247.074 184.212 245.731 182.94 244.105 182.94C242.479 182.94 241.136 184.283 241.136 185.836V198.409Z" fill="#A1F181"/>
<path d="M264.677 193.112C264.677 195.654 266.727 197.632 269.201 197.632C271.746 197.632 273.725 195.584 273.725 193.112V186.119C273.725 183.576 271.675 181.598 269.201 181.598C266.656 181.598 264.677 183.647 264.677 186.119V193.112Z" fill="#A1F181"/>
<path d="M262.132 183.717C262.132 184 262.344 184.283 262.697 184.283C263.051 184.283 263.263 184.071 263.263 183.717V179.409C263.263 179.126 263.051 178.844 262.697 178.844C262.344 178.844 262.132 179.056 262.132 179.409V183.717Z" fill="#34732B"/>
<path d="M252.093 193.677C252.093 193.959 252.305 194.242 252.659 194.242C252.941 194.242 253.224 194.03 253.224 193.677V190.993C253.224 190.71 253.012 190.428 252.659 190.428C252.376 190.428 252.093 190.64 252.093 190.993V193.677Z" fill="#34732B"/>
<path d="M257.324 192.97C257.324 193.253 257.536 193.535 257.89 193.535C258.243 193.535 258.455 193.324 258.455 192.97V182.94C258.455 182.658 258.243 182.375 257.89 182.375C257.536 182.375 257.324 182.587 257.324 182.94V192.97Z" fill="#34732B"/>
<path d="M265.313 191.558C265.313 191.84 265.525 192.123 265.878 192.123C266.161 192.123 266.444 191.911 266.444 191.558V185.836C266.444 185.554 266.232 185.271 265.878 185.271C265.596 185.271 265.313 185.483 265.313 185.836V191.558Z" fill="#61B756"/>
<path d="M242.125 194.948C242.125 195.231 242.337 195.513 242.691 195.513C243.044 195.513 243.256 195.301 243.256 194.948V189.227C243.256 188.944 243.044 188.662 242.691 188.662C242.337 188.662 242.125 188.874 242.125 189.227V194.948Z" fill="#61B756"/>
<path d="M243.963 197.42C243.963 197.703 244.175 197.985 244.529 197.985C244.882 197.985 245.094 197.774 245.094 197.42V191.699C245.094 191.416 244.882 191.134 244.529 191.134C244.175 191.134 243.963 191.346 243.963 191.699V197.42Z" fill="#61B756"/>
<path d="M265.878 193.677C266.161 193.677 266.444 193.465 266.444 193.112C266.444 192.829 266.232 192.547 265.878 192.547C265.525 192.547 265.313 192.759 265.313 193.112C265.313 193.465 265.525 193.677 265.878 193.677Z" fill="#61B756"/>
<path d="M252.659 195.796C252.941 195.796 253.224 195.584 253.224 195.231C253.224 194.948 253.012 194.666 252.659 194.666C252.376 194.666 252.093 194.878 252.093 195.231C252.093 195.584 252.376 195.796 252.659 195.796Z" fill="#34732B"/>
<path d="M153.334 193.394C153.334 190.851 151.284 188.803 148.739 188.803C146.194 188.803 144.144 190.851 144.144 193.394V203.636C144.144 206.179 146.194 208.227 148.739 208.227C151.284 208.227 153.334 206.179 153.334 203.636V193.394Z" fill="#24521D"/>
<path d="M143.72 200.246C143.72 199.116 142.801 198.197 141.67 198.197C140.539 198.197 139.62 199.116 139.62 200.246V204.978C139.62 206.108 140.539 207.027 141.67 207.027C142.801 207.027 143.72 206.108 143.72 204.978V200.246Z" fill="#24521D"/>
<path d="M143.013 202.506V209.004C143.013 209.004 143.013 210.699 144.215 211.123C144.639 211.194 144.992 211.406 145.275 211.759C145.558 212.112 145.699 212.536 145.699 212.96V217.622H146.76V212.96C146.76 212.96 146.76 211.406 145.911 210.841L144.78 210.205C144.78 210.205 144.215 210.134 144.073 209.004V202.506H143.013Z" fill="#712E76"/>
<path d="M148.881 194.736C148.881 193.606 147.962 192.688 146.83 192.688C145.699 192.688 144.78 193.606 144.78 194.736V199.469C144.78 200.599 145.699 201.517 146.83 201.517C147.962 201.517 148.881 200.599 148.881 199.469V194.736Z" fill="#5C8E16"/>
<path d="M142.377 195.16C142.377 194.03 141.458 193.112 140.327 193.112C139.196 193.112 138.277 194.03 138.277 195.16V199.893C138.277 201.023 139.196 201.941 140.327 201.941C141.458 201.941 142.377 201.023 142.377 199.893V195.16Z" fill="#5C8E16"/>
<path d="M147.043 194.101C147.043 192.476 145.699 191.205 144.144 191.205C142.589 191.205 141.246 192.547 141.246 194.101V202.153C141.246 203.777 142.589 205.049 144.144 205.049C145.699 205.049 147.043 203.707 147.043 202.153V194.101Z" fill="#43BC2E"/>
<path d="M147.537 208.51V204.766H148.739V208.51C148.739 208.722 148.739 208.863 148.668 209.004C148.598 209.146 148.527 209.287 148.386 209.428C147.891 209.852 147.255 209.499 146.76 209.852C146.548 209.993 146.265 210.346 146.265 211.194H145.063C145.063 209.781 145.487 209.287 145.841 209.075C146.406 208.722 147.396 208.863 147.537 208.51Z" fill="#712E76"/>
<path d="M151.355 202.647V206.391C151.355 206.391 151.213 207.521 150.365 207.592L148.739 207.662V208.157H150.436C150.436 208.157 151.85 208.227 151.85 206.461V202.718H151.355V202.647Z" fill="#712E76"/>
<path d="M140.751 201.941V205.684C140.751 205.684 140.892 206.815 141.74 206.885L143.366 206.956V207.45H141.67C141.67 207.45 140.256 207.521 140.256 205.684V201.941H140.751Z" fill="#712E76"/>
<path d="M153.476 200.952V203.495C153.476 203.495 153.405 204.272 152.698 204.272L151.496 204.342V204.625H152.769C152.91 204.625 153.051 204.625 153.193 204.554C153.334 204.484 153.476 204.413 153.546 204.272C153.617 204.131 153.758 204.06 153.758 203.919C153.829 203.777 153.829 203.636 153.829 203.495V200.952H153.476Z" fill="#712E76"/>
<path d="M152.698 200.952C152.698 200.104 151.991 199.398 151.143 199.398C150.294 199.398 149.587 200.104 149.587 200.952V201.588C149.587 202.435 150.294 203.142 151.143 203.142C151.991 203.142 152.698 202.435 152.698 201.588V200.952Z" fill="#A1F181"/>
<path d="M149.941 200.74C149.941 199.893 149.234 199.186 148.386 199.186C147.537 199.186 146.83 199.893 146.83 200.74V204.131C146.83 204.978 147.537 205.684 148.386 205.684C149.234 205.684 149.941 204.978 149.941 204.131V200.74Z" fill="#43BC2E"/>
<path d="M156.657 198.127C156.657 197.138 155.879 196.361 154.889 196.361C153.9 196.361 153.122 197.138 153.122 198.127V205.755C153.122 206.744 153.9 207.521 154.889 207.521C155.879 207.521 156.657 206.744 156.657 205.755V198.127Z" fill="#43BC2E"/>
<path d="M141.882 198.339C141.882 196.785 140.609 195.584 139.125 195.584C137.57 195.584 136.368 196.855 136.368 198.339V202.577C136.368 204.13 137.64 205.331 139.125 205.331C140.68 205.331 141.882 204.06 141.882 202.577V198.339Z" fill="#A1F181"/>
<path d="M143.366 194.242C143.366 194.03 143.225 193.889 143.013 193.889C142.801 193.889 142.66 194.03 142.66 194.242V196.855C142.66 197.067 142.801 197.208 143.013 197.208C143.225 197.208 143.366 197.067 143.366 196.855V194.242Z" fill="#34732B"/>
<path d="M149.517 201.305C149.517 201.093 149.375 200.952 149.163 200.952C148.951 200.952 148.81 201.093 148.81 201.305V202.93C148.81 203.142 148.951 203.283 149.163 203.283C149.375 203.283 149.517 203.142 149.517 202.93V201.305Z" fill="#34732B"/>
<path d="M146.336 196.431C146.336 196.22 146.194 196.078 145.982 196.078C145.77 196.078 145.629 196.22 145.629 196.431V202.506C145.629 202.718 145.77 202.859 145.982 202.859C146.194 202.859 146.336 202.718 146.336 202.506V196.431Z" fill="#34732B"/>
<path d="M141.458 198.127C141.458 197.915 141.316 197.773 141.104 197.773C140.892 197.773 140.751 197.915 140.751 198.127V201.588C140.751 201.8 140.892 201.941 141.104 201.941C141.316 201.941 141.458 201.8 141.458 201.588V198.127Z" fill="#61B756"/>
<path d="M156.091 200.246C156.091 200.034 155.95 199.893 155.738 199.893C155.526 199.893 155.384 200.034 155.384 200.246V203.707C155.384 203.919 155.526 204.06 155.738 204.06C155.95 204.06 156.091 203.919 156.091 203.707V200.246Z" fill="#34732B"/>
<path d="M154.96 201.729C154.96 201.517 154.819 201.376 154.607 201.376C154.395 201.376 154.253 201.517 154.253 201.729V205.19C154.253 205.402 154.395 205.543 154.607 205.543C154.819 205.543 154.96 205.402 154.96 205.19V201.729Z" fill="#34732B"/>
<path d="M141.104 202.93C141.316 202.93 141.458 202.788 141.458 202.577C141.458 202.365 141.316 202.223 141.104 202.223C140.892 202.223 140.751 202.365 140.751 202.577C140.821 202.788 140.963 202.93 141.104 202.93Z" fill="#61B756"/>
<path d="M149.163 204.201C149.375 204.201 149.517 204.06 149.517 203.848C149.517 203.636 149.375 203.495 149.163 203.495C148.951 203.495 148.81 203.636 148.81 203.848C148.81 204.06 148.951 204.201 149.163 204.201Z" fill="#34732B"/>
<path d="M64.7553 324.066L63.5535 324.843C63.3414 324.984 63.0586 325.126 62.7758 325.126C62.4931 325.126 62.2103 325.126 61.9275 325.055C61.6447 324.984 61.4327 324.843 61.1499 324.631C60.9378 324.419 60.7257 324.207 60.655 323.925L59.9481 322.583C59.6653 322.018 59.5946 321.453 59.736 320.817C59.8774 320.252 60.2309 319.687 60.7257 319.404L61.9275 318.627C62.1396 318.486 62.4224 318.345 62.7051 318.345C62.9879 318.274 63.2707 318.345 63.5535 318.415C63.8362 318.486 64.0483 318.627 64.3311 318.839C64.5432 319.051 64.7553 319.263 64.826 319.546L65.5329 320.888C65.8157 321.453 65.8864 322.018 65.745 322.653C65.6036 323.218 65.2501 323.713 64.7553 324.066Z" fill="#714E29"/>
<path d="M204.658 286.63L204.304 287.407C204.234 287.549 204.092 287.69 204.021 287.76C203.88 287.831 203.739 287.902 203.597 287.972C203.456 287.972 203.244 287.972 203.102 287.972C202.961 287.902 202.82 287.831 202.678 287.76L201.901 287.266C201.618 287.054 201.335 286.772 201.264 286.418C201.194 286.065 201.194 285.712 201.335 285.359L201.689 284.582C201.759 284.441 201.901 284.299 201.971 284.229C202.113 284.158 202.254 284.088 202.396 284.017C202.537 283.946 202.749 283.946 202.89 284.017C203.032 284.088 203.173 284.158 203.315 284.229L204.092 284.723C204.375 284.935 204.658 285.218 204.728 285.571C204.799 285.924 204.799 286.277 204.658 286.63Z" fill="#876036"/>
<path d="M208.829 290.939L208.475 291.575C208.334 291.857 208.051 292.069 207.768 292.14C207.485 292.21 207.132 292.21 206.849 291.998L206.213 291.645C205.93 291.504 205.718 291.221 205.647 290.939C205.577 290.656 205.577 290.303 205.789 290.021L206.142 289.385C206.284 289.102 206.566 288.891 206.849 288.82C207.132 288.749 207.485 288.749 207.768 288.961L208.404 289.314C208.687 289.456 208.899 289.738 208.97 290.021C209.041 290.374 208.97 290.656 208.829 290.939Z" fill="#876036"/>
<path d="M207.344 296.872L207.061 297.296C206.991 297.367 206.92 297.437 206.849 297.508C206.779 297.579 206.708 297.578 206.566 297.649C206.496 297.649 206.354 297.649 206.284 297.649C206.213 297.649 206.072 297.578 206.001 297.578L205.577 297.296C205.435 297.225 205.294 297.013 205.223 296.872C205.153 296.66 205.223 296.448 205.294 296.307L205.577 295.883C205.647 295.813 205.718 295.742 205.789 295.671C205.86 295.601 205.93 295.601 206.072 295.53C206.142 295.53 206.284 295.53 206.354 295.53C206.425 295.53 206.566 295.601 206.637 295.601L207.061 295.883C207.203 295.954 207.344 296.166 207.415 296.307C207.485 296.519 207.485 296.731 207.344 296.872Z" fill="#876036"/>
<path d="M203.668 299.98L203.456 300.263C203.456 300.333 203.385 300.404 203.315 300.404C203.244 300.474 203.173 300.474 203.102 300.474C203.032 300.474 202.961 300.474 202.89 300.474C202.82 300.474 202.749 300.474 202.678 300.404L202.396 300.192C202.325 300.192 202.254 300.121 202.254 300.051C202.183 299.98 202.183 299.909 202.183 299.839C202.183 299.768 202.183 299.698 202.183 299.627C202.183 299.556 202.183 299.486 202.254 299.415L202.466 299.132C202.537 298.991 202.678 298.921 202.82 298.85C202.961 298.779 203.102 298.85 203.244 298.921L203.527 299.132C203.597 299.132 203.668 299.203 203.668 299.274C203.739 299.344 203.739 299.415 203.739 299.486C203.739 299.556 203.739 299.627 203.739 299.697C203.668 299.909 203.668 299.98 203.668 299.98Z" fill="#876036"/>
<path d="M204.587 302.523L204.728 302.805C204.799 302.876 204.87 302.947 205.011 303.017C205.153 303.017 205.223 303.017 205.365 302.947L205.577 302.805C205.647 302.805 205.647 302.735 205.718 302.664C205.718 302.593 205.789 302.593 205.789 302.523C205.789 302.452 205.789 302.382 205.789 302.382C205.789 302.311 205.789 302.24 205.718 302.24L205.577 301.958C205.577 301.887 205.506 301.887 205.435 301.816C205.365 301.816 205.365 301.746 205.294 301.746C205.223 301.746 205.153 301.746 205.153 301.746C205.153 301.746 205.011 301.746 205.011 301.816L204.728 301.958C204.658 301.958 204.658 302.028 204.587 302.099C204.587 302.17 204.516 302.17 204.516 302.24C204.516 302.311 204.516 302.382 204.516 302.382C204.516 302.382 204.516 302.452 204.587 302.523Z" fill="#876036"/>
<path d="M203.315 305.066L203.456 305.278C203.456 305.348 203.527 305.348 203.527 305.348C203.597 305.348 203.597 305.419 203.668 305.419C203.739 305.419 203.739 305.419 203.809 305.419C203.88 305.419 203.88 305.419 203.951 305.348L204.163 305.207C204.234 305.136 204.304 305.066 204.304 304.995C204.304 304.924 204.304 304.783 204.304 304.712L204.163 304.501C204.092 304.43 204.021 304.359 203.951 304.359C203.88 304.359 203.739 304.359 203.668 304.359L203.456 304.501C203.385 304.571 203.315 304.642 203.315 304.712C203.244 304.854 203.244 304.995 203.315 305.066Z" fill="#876036"/>
<path d="M204.021 293.906L203.668 294.471C203.597 294.612 203.527 294.683 203.385 294.753C203.315 294.824 203.173 294.894 203.032 294.894C202.89 294.894 202.749 294.965 202.678 294.894C202.537 294.894 202.396 294.824 202.325 294.753L201.759 294.4C201.547 294.259 201.406 294.047 201.335 293.835C201.264 293.623 201.335 293.34 201.406 293.129L201.759 292.564C201.901 292.352 202.113 292.21 202.325 292.14C202.537 292.069 202.82 292.14 203.032 292.21L203.597 292.564C203.809 292.705 203.951 292.917 204.021 293.129C204.163 293.411 204.092 293.694 204.021 293.906Z" fill="#876036"/>
<path d="M67.8658 340.947L67.4416 341.654C67.3002 341.936 67.0175 342.148 66.664 342.219C66.3105 342.289 66.0277 342.289 65.6743 342.078L64.9673 341.654C64.6846 341.512 64.4725 341.23 64.4018 340.877C64.3311 340.524 64.3311 340.241 64.5432 339.888L64.9673 339.182C65.1087 338.899 65.3915 338.687 65.745 338.616C66.0984 338.546 66.3812 338.546 66.7347 338.758L67.4416 339.182C67.7244 339.323 67.9365 339.605 68.0072 339.959C68.0779 340.312 68.0779 340.665 67.8658 340.947Z" fill="#714E29"/>
<path d="M62.9172 345.68V346.316C62.9172 346.457 62.9172 346.598 62.8465 346.739C62.7758 346.881 62.7052 347.022 62.6345 347.092C62.5638 347.163 62.4224 347.304 62.281 347.304C62.1396 347.304 61.9982 347.375 61.8568 347.375H61.2206C61.0792 347.375 60.9378 347.375 60.7964 347.304C60.655 347.234 60.5843 347.163 60.443 347.092C60.3723 347.022 60.3016 346.881 60.2309 346.739C60.1602 346.598 60.1602 346.457 60.1602 346.316V345.68C60.1602 345.539 60.1602 345.397 60.2309 345.256C60.3016 345.115 60.3723 344.973 60.443 344.903C60.5137 344.832 60.655 344.691 60.7964 344.691C60.9378 344.62 61.0792 344.62 61.2206 344.62H61.8568C61.9982 344.62 62.1396 344.62 62.281 344.691C62.4224 344.762 62.4931 344.832 62.6345 344.903C62.7758 344.973 62.8465 345.115 62.8465 345.256C62.9172 345.397 62.9172 345.539 62.9172 345.68Z" fill="#714E29"/>
<path d="M105.263 351.542L104.909 352.178C104.768 352.461 104.697 352.743 104.838 353.026C104.909 353.308 105.121 353.52 105.333 353.661L105.97 354.015C106.111 354.085 106.252 354.156 106.394 354.156C106.535 354.156 106.677 354.156 106.818 354.156C106.959 354.085 107.101 354.085 107.171 353.944C107.313 353.873 107.383 353.732 107.454 353.591L107.808 352.955C107.878 352.814 107.949 352.673 107.949 352.531C107.949 352.39 107.949 352.249 107.949 352.107C107.878 351.966 107.878 351.825 107.737 351.754C107.666 351.613 107.525 351.542 107.383 351.472L106.747 351.119C106.606 351.048 106.464 350.977 106.323 350.977C106.182 350.977 106.04 350.977 105.899 350.977C105.757 351.048 105.616 351.048 105.545 351.189C105.475 351.26 105.404 351.401 105.263 351.542Z" fill="#714E29"/>
<path d="M107.666 358.394L108.02 358.818C108.161 358.959 108.373 359.1 108.585 359.1C108.797 359.1 109.009 359.03 109.151 358.888L109.575 358.535C109.716 358.394 109.858 358.182 109.858 357.97C109.858 357.758 109.787 357.546 109.646 357.405L109.292 356.981C109.221 356.911 109.151 356.84 109.08 356.769C109.009 356.699 108.868 356.699 108.797 356.699C108.656 356.699 108.585 356.699 108.515 356.699C108.444 356.699 108.302 356.769 108.232 356.84L107.808 357.193C107.737 357.264 107.666 357.334 107.596 357.405C107.525 357.476 107.525 357.617 107.525 357.688C107.525 357.758 107.525 357.899 107.596 357.97C107.596 358.253 107.596 358.323 107.666 358.394Z" fill="#714E29"/>
<path d="M104.909 361.502L105.121 361.714C105.192 361.784 105.192 361.784 105.263 361.855C105.333 361.855 105.404 361.926 105.404 361.926C105.475 361.926 105.545 361.926 105.545 361.926C105.616 361.926 105.687 361.855 105.687 361.855L105.899 361.643C105.97 361.572 105.97 361.572 106.04 361.502C106.04 361.431 106.111 361.36 106.111 361.36C106.111 361.29 106.111 361.219 106.111 361.149C106.111 361.078 106.04 361.007 106.04 361.007L105.828 360.795C105.757 360.725 105.757 360.725 105.687 360.654C105.616 360.654 105.545 360.583 105.545 360.583C105.475 360.583 105.404 360.583 105.404 360.583C105.333 360.583 105.333 360.654 105.263 360.654L105.051 360.866C104.98 360.937 104.98 360.937 104.909 361.007C104.909 361.078 104.838 361.149 104.838 361.149C104.838 361.219 104.838 361.29 104.838 361.36C104.838 361.431 104.909 361.431 104.909 361.502Z" fill="#714E29"/>
<path d="M65.8157 328.94L66.0277 329.929C66.0984 330.141 66.1691 330.282 66.2398 330.494C66.3105 330.706 66.5226 330.776 66.664 330.917C66.8054 331.059 67.0174 331.129 67.2295 331.129C67.4416 331.129 67.6537 331.129 67.8658 331.129L68.8555 330.917C69.0676 330.847 69.2089 330.776 69.421 330.706C69.5624 330.564 69.7038 330.423 69.8452 330.282C69.9866 330.141 70.0573 329.929 70.0573 329.717C70.128 329.505 70.0573 329.293 70.0573 329.152L69.8452 328.163C69.7745 327.951 69.7038 327.81 69.6331 327.598C69.4917 327.456 69.3503 327.315 69.2089 327.174C69.0676 327.033 68.8555 326.962 68.6434 326.962C68.4313 326.891 68.2192 326.962 68.0072 326.962L67.0175 327.174C66.8054 327.245 66.664 327.315 66.4519 327.386C66.3105 327.527 66.1691 327.668 66.0277 327.81C65.8864 327.951 65.8157 328.163 65.8157 328.375C65.8157 328.516 65.8157 328.728 65.8157 328.94Z" fill="#714E29"/>
<path d="M60.0188 335.509L60.2309 336.356C60.3016 336.709 60.5136 336.992 60.7964 337.204C61.0792 337.416 61.4327 337.486 61.7861 337.416L62.6345 337.204C62.7758 337.133 62.9879 337.063 63.1293 336.992C63.2707 336.921 63.4121 336.78 63.4828 336.639C63.5535 336.498 63.6242 336.356 63.6949 336.144C63.6949 336.003 63.6949 335.791 63.6949 335.65L63.4828 334.802C63.4121 334.661 63.3414 334.449 63.2707 334.308C63.2 334.167 63.0586 334.025 62.9172 333.955C62.7758 333.884 62.6345 333.813 62.4224 333.743C62.281 333.743 62.0689 333.743 61.9275 333.743L61.0792 333.955C60.9378 334.025 60.7257 334.096 60.5843 334.167C60.443 334.237 60.3016 334.379 60.2309 334.52C60.1602 334.661 60.0895 334.802 60.0188 335.014C59.9481 335.226 59.9481 335.367 60.0188 335.509Z" fill="#714E29"/>
<path d="M107.03 291.151L106.464 291.998C106.252 292.352 105.828 292.564 105.404 292.705C104.98 292.775 104.556 292.705 104.202 292.493L103.283 291.928C103.142 291.787 102.93 291.645 102.859 291.504C102.718 291.363 102.647 291.151 102.647 290.939C102.576 290.727 102.576 290.515 102.647 290.303C102.718 290.091 102.788 289.879 102.859 289.738L103.425 288.891C103.637 288.537 104.061 288.326 104.485 288.184C104.909 288.114 105.333 288.184 105.687 288.396L106.606 288.961C106.747 289.103 106.959 289.244 107.03 289.385C107.171 289.526 107.242 289.738 107.242 289.95C107.313 290.162 107.313 290.374 107.242 290.586C107.242 290.798 107.171 291.01 107.03 291.151Z" fill="#876036"/>
<path d="M109.787 296.731L109.363 297.296C109.221 297.508 108.939 297.72 108.656 297.72C108.373 297.79 108.09 297.72 107.808 297.579L107.171 297.155C106.959 297.013 106.747 296.731 106.677 296.448C106.606 296.166 106.677 295.883 106.818 295.601L107.242 295.036C107.383 294.824 107.666 294.612 107.949 294.541C108.232 294.471 108.515 294.541 108.797 294.683L109.434 295.106C109.646 295.248 109.858 295.53 109.928 295.813C109.999 296.095 109.928 296.519 109.787 296.731Z" fill="#876036"/>
<path d="M105.828 301.463L105.545 301.958C105.475 302.028 105.404 302.17 105.333 302.24C105.263 302.311 105.121 302.382 105.051 302.382C104.909 302.382 104.838 302.452 104.697 302.382C104.556 302.382 104.485 302.311 104.344 302.24L103.778 301.958C103.566 301.817 103.425 301.675 103.354 301.393C103.283 301.181 103.283 300.898 103.425 300.686L103.707 300.192C103.778 300.121 103.849 299.98 103.919 299.909C103.99 299.839 104.132 299.768 104.202 299.768C104.344 299.768 104.414 299.698 104.556 299.768C104.697 299.768 104.768 299.839 104.909 299.909L105.475 300.192C105.687 300.333 105.828 300.474 105.899 300.757C105.97 300.969 105.97 301.251 105.828 301.463Z" fill="#876036"/>
<path d="M141.246 323.925L141.811 324.914C141.953 325.126 142.094 325.267 142.235 325.408C142.447 325.549 142.589 325.62 142.801 325.691C143.013 325.761 143.225 325.761 143.437 325.761C143.649 325.761 143.861 325.691 144.073 325.549L145.063 324.984C145.487 324.772 145.77 324.419 145.841 323.925C145.982 323.501 145.911 323.007 145.699 322.653L145.134 321.664C144.992 321.453 144.851 321.311 144.71 321.17C144.498 321.029 144.356 320.958 144.144 320.888C143.932 320.817 143.72 320.817 143.508 320.817C143.296 320.817 143.084 320.888 142.872 321.029L141.882 321.594C141.67 321.735 141.528 321.876 141.387 322.018C141.246 322.23 141.175 322.371 141.104 322.583C141.034 322.795 141.034 323.007 141.034 323.218C141.034 323.501 141.104 323.713 141.246 323.925Z" fill="#876036"/>
<path d="M139.337 329.858L139.761 330.564C139.902 330.847 140.115 331.059 140.397 331.129C140.68 331.2 140.963 331.2 141.246 331.059L141.882 330.706C142.094 330.564 142.306 330.282 142.306 329.999C142.377 329.717 142.306 329.434 142.165 329.152L141.74 328.445C141.599 328.163 141.387 327.951 141.104 327.88C140.821 327.81 140.539 327.81 140.256 327.951L139.62 328.304C139.478 328.375 139.408 328.516 139.337 328.657C139.266 328.798 139.196 328.94 139.196 329.081C139.196 329.222 139.196 329.364 139.196 329.505C139.196 329.646 139.266 329.787 139.337 329.858Z" fill="#876036"/>
<path d="M143.154 333.39L143.437 333.884C143.508 334.096 143.72 334.237 143.932 334.308C144.144 334.378 144.356 334.378 144.568 334.308L144.992 334.096C145.063 334.025 145.134 333.955 145.204 333.884C145.275 333.813 145.346 333.672 145.346 333.602C145.346 333.46 145.346 333.39 145.346 333.248C145.346 333.107 145.275 333.036 145.204 332.966L144.922 332.471C144.851 332.26 144.639 332.118 144.427 332.048C144.215 331.977 144.003 331.977 143.791 332.048L143.366 332.259C143.296 332.33 143.225 332.401 143.154 332.471C143.084 332.542 143.013 332.683 143.013 332.754C143.013 332.895 143.013 332.966 143.013 333.107C143.084 333.178 143.084 333.248 143.154 333.39Z" fill="#876036"/>
<path d="M139.62 336.286L139.832 335.862C139.902 335.721 140.044 335.579 140.256 335.509C140.468 335.438 140.609 335.438 140.821 335.509L141.246 335.721C141.316 335.791 141.387 335.862 141.458 335.932C141.528 336.003 141.528 336.074 141.599 336.215C141.599 336.286 141.599 336.427 141.599 336.497C141.599 336.568 141.528 336.709 141.528 336.78L141.316 337.204C141.246 337.345 141.104 337.486 140.892 337.557C140.751 337.628 140.539 337.628 140.327 337.557L139.973 337.345C139.902 337.274 139.832 337.204 139.761 337.133C139.69 337.063 139.69 336.992 139.62 336.851C139.62 336.78 139.62 336.639 139.62 336.568C139.549 336.498 139.62 336.427 139.62 336.286Z" fill="#876036"/>
<path d="M143.296 339.323L143.084 338.97C143.013 338.828 142.942 338.758 142.801 338.687C142.66 338.616 142.518 338.616 142.377 338.687L142.094 338.828C142.023 338.899 141.953 338.899 141.953 338.97C141.882 339.04 141.882 339.111 141.882 339.182C141.882 339.252 141.882 339.323 141.882 339.393C141.882 339.464 141.953 339.535 141.953 339.605L142.165 339.959C142.235 340.1 142.306 340.17 142.447 340.241C142.589 340.312 142.73 340.312 142.872 340.241L143.154 340.1C143.225 340.029 143.296 340.029 143.296 339.959C143.366 339.888 143.366 339.817 143.366 339.747C143.366 339.676 143.366 339.605 143.366 339.535C143.366 339.464 143.296 339.393 143.296 339.323Z" fill="#876036"/>
<path d="M139.832 342.078L139.973 341.795C140.044 341.724 140.115 341.654 140.185 341.583C140.256 341.512 140.397 341.583 140.468 341.583L140.68 341.724C140.751 341.795 140.821 341.866 140.892 342.007C140.892 342.078 140.892 342.219 140.821 342.289L140.68 342.572C140.609 342.643 140.539 342.713 140.468 342.784C140.397 342.855 140.256 342.784 140.185 342.784L139.973 342.572C139.902 342.572 139.902 342.501 139.832 342.431C139.832 342.36 139.761 342.36 139.761 342.289C139.761 342.219 139.761 342.219 139.761 342.148C139.832 342.148 139.832 342.078 139.832 342.078Z" fill="#876036"/>
<path d="M142.235 343.702L142.023 343.561C141.953 343.49 141.811 343.49 141.74 343.49C141.599 343.49 141.528 343.561 141.458 343.631L141.316 343.843C141.316 343.914 141.246 343.914 141.246 343.985C141.246 344.055 141.246 344.055 141.246 344.126C141.246 344.197 141.316 344.197 141.316 344.267C141.316 344.338 141.387 344.338 141.458 344.338L141.67 344.479C141.74 344.55 141.882 344.55 141.953 344.55C142.094 344.55 142.165 344.479 142.235 344.408L142.377 344.197C142.377 344.126 142.447 344.126 142.447 344.055C142.447 343.985 142.447 343.985 142.447 343.914C142.447 343.843 142.377 343.843 142.377 343.773C142.306 343.773 142.306 343.773 142.235 343.702Z" fill="#876036"/>
<path d="M139.761 344.974L139.973 344.832C140.044 344.762 140.115 344.762 140.185 344.762C140.256 344.762 140.327 344.832 140.397 344.903L140.468 345.044C140.539 345.115 140.539 345.185 140.468 345.256C140.468 345.327 140.397 345.397 140.327 345.468L140.115 345.609L140.044 345.68C139.973 345.68 139.973 345.68 139.902 345.68C139.832 345.68 139.832 345.68 139.761 345.609L139.69 345.539L139.62 345.397C139.549 345.327 139.549 345.256 139.62 345.185C139.69 345.115 139.69 345.044 139.761 344.974Z" fill="#876036"/>
<path d="M271.251 296.802L271.817 297.79C271.958 298.002 272.099 298.144 272.241 298.285C272.453 298.426 272.594 298.497 272.806 298.567C273.018 298.638 273.23 298.638 273.443 298.638C273.655 298.638 273.867 298.567 274.079 298.426L275.068 297.861C275.493 297.649 275.775 297.296 275.846 296.802C275.987 296.378 275.917 295.883 275.705 295.53L275.139 294.541C274.927 294.117 274.574 293.835 274.079 293.764C273.655 293.623 273.16 293.694 272.806 293.906L271.817 294.471C271.392 294.683 271.11 295.036 271.039 295.53C270.968 295.954 271.039 296.378 271.251 296.802Z" fill="#563A21"/>
<path d="M269.342 302.735L269.766 303.441C269.908 303.724 270.12 303.936 270.403 304.006C270.685 304.077 270.968 304.077 271.251 303.936L271.887 303.582C272.029 303.512 272.099 303.37 272.17 303.229C272.241 303.088 272.311 302.947 272.311 302.805C272.311 302.664 272.311 302.523 272.311 302.382C272.311 302.24 272.241 302.099 272.099 301.958L271.675 301.251C271.534 300.969 271.322 300.757 271.039 300.686C270.756 300.616 270.473 300.616 270.191 300.757L269.554 301.11C269.413 301.181 269.342 301.322 269.272 301.463C269.201 301.605 269.13 301.746 269.13 301.887C269.13 302.028 269.13 302.17 269.13 302.311C269.201 302.523 269.272 302.664 269.342 302.735Z" fill="#563A21"/>
<path d="M273.16 306.196L273.443 306.69C273.513 306.902 273.725 307.043 273.937 307.114C274.149 307.185 274.362 307.185 274.574 307.114L274.998 306.902C275.068 306.831 275.139 306.761 275.21 306.69C275.281 306.62 275.351 306.478 275.351 306.408C275.351 306.266 275.351 306.196 275.351 306.054C275.351 305.913 275.281 305.843 275.21 305.772L274.927 305.278C274.856 305.066 274.644 304.924 274.432 304.854C274.22 304.783 274.008 304.783 273.796 304.854L273.301 305.066C273.23 305.136 273.16 305.207 273.089 305.278C273.018 305.348 272.948 305.489 272.948 305.56C272.948 305.701 272.948 305.772 272.948 305.913C273.018 306.054 273.089 306.125 273.16 306.196Z" fill="#563A21"/>
<path d="M269.625 309.162L269.837 308.739C269.908 308.597 270.049 308.456 270.261 308.385C270.473 308.315 270.615 308.315 270.827 308.385L271.18 308.597C271.251 308.668 271.322 308.739 271.392 308.809C271.463 308.88 271.463 308.95 271.534 309.092C271.534 309.162 271.534 309.304 271.534 309.374C271.534 309.445 271.463 309.586 271.463 309.657L271.251 310.081C271.18 310.222 271.039 310.363 270.827 310.434C270.615 310.504 270.473 310.504 270.261 310.434L269.908 310.222C269.837 310.151 269.766 310.081 269.696 310.01C269.625 309.939 269.625 309.869 269.554 309.727C269.554 309.657 269.554 309.516 269.554 309.445C269.554 309.374 269.554 309.233 269.625 309.162Z" fill="#563A21"/>
<path d="M273.23 312.2L273.018 311.846C272.948 311.705 272.877 311.635 272.736 311.564C272.594 311.493 272.453 311.493 272.311 311.564L272.029 311.705C271.958 311.776 271.887 311.776 271.887 311.846C271.887 311.917 271.817 311.988 271.817 312.058C271.817 312.129 271.817 312.2 271.817 312.27C271.817 312.341 271.887 312.411 271.887 312.482L272.099 312.835C272.17 312.977 272.241 313.047 272.382 313.118C272.523 313.188 272.665 313.188 272.806 313.118L273.089 312.977C273.16 312.906 273.23 312.906 273.23 312.835C273.301 312.765 273.301 312.694 273.301 312.623C273.301 312.553 273.301 312.482 273.301 312.411C273.301 312.341 273.301 312.27 273.23 312.2Z" fill="#563A21"/>
<path d="M269.837 314.884L269.979 314.601C270.049 314.531 270.12 314.46 270.191 314.389C270.261 314.319 270.403 314.389 270.473 314.389L270.685 314.531C270.756 314.601 270.827 314.672 270.898 314.813C270.898 314.884 270.898 315.025 270.827 315.096L270.685 315.378C270.615 315.449 270.544 315.519 270.473 315.59C270.403 315.661 270.261 315.661 270.191 315.59L269.979 315.449C269.908 315.449 269.908 315.378 269.837 315.307C269.837 315.237 269.766 315.237 269.766 315.166C269.766 315.096 269.766 315.096 269.766 315.025C269.766 315.025 269.766 314.954 269.837 314.884Z" fill="#563A21"/>
<path d="M272.241 316.579L272.029 316.438C271.958 316.367 271.817 316.367 271.746 316.367C271.604 316.367 271.534 316.438 271.463 316.508L271.322 316.72C271.322 316.791 271.251 316.791 271.251 316.861C271.251 316.932 271.251 316.932 271.251 317.003C271.251 317.073 271.322 317.073 271.322 317.144C271.322 317.215 271.392 317.215 271.463 317.215L271.675 317.356C271.746 317.426 271.887 317.426 271.958 317.426C272.099 317.426 272.17 317.356 272.241 317.285L272.382 317.073C272.382 317.003 272.453 317.003 272.453 316.932C272.453 316.861 272.453 316.861 272.453 316.791C272.453 316.72 272.382 316.72 272.382 316.65C272.241 316.65 272.241 316.65 272.241 316.579Z" fill="#563A21"/>
<path d="M269.484 319.757L269.696 319.616C269.766 319.545 269.837 319.545 269.908 319.545C269.979 319.545 270.049 319.616 270.12 319.687L270.191 319.828C270.191 319.828 270.191 319.899 270.261 319.969C270.261 320.04 270.261 320.04 270.261 320.111C270.261 320.181 270.261 320.181 270.191 320.181L270.12 320.252L269.908 320.393C269.837 320.464 269.766 320.464 269.696 320.464C269.625 320.464 269.554 320.393 269.484 320.322L269.413 320.181C269.342 320.111 269.342 320.04 269.413 319.969C269.342 319.899 269.413 319.828 269.484 319.757Z" fill="#563A21"/>
<path d="M32.0242 276.954L32.4483 276.177C32.5897 275.894 32.8018 275.682 33.1553 275.541C33.438 275.4 33.7915 275.47 34.0743 275.541L34.7105 275.894C34.8519 275.965 34.9933 276.106 35.064 276.247C35.1347 276.388 35.2054 276.53 35.2761 276.671C35.3468 276.812 35.3468 276.954 35.2761 277.165C35.2761 277.307 35.2054 277.448 35.1347 277.589L34.6398 278.296C34.4984 278.578 34.2863 278.79 33.9329 278.931C33.6501 279.073 33.2966 279.002 33.0139 278.931L32.3776 278.578C32.2362 278.507 32.0948 278.366 32.0242 278.225C31.9535 278.084 31.8828 277.942 31.8121 277.801C31.8121 277.66 31.7414 277.519 31.8121 277.307C31.8828 277.236 31.9535 277.095 32.0242 276.954Z" fill="#876036"/>
<path d="M38.1745 280.697L37.8917 280.132C37.821 279.92 37.6089 279.779 37.3969 279.638C37.1848 279.567 36.902 279.567 36.6899 279.638L36.1951 279.92C35.983 280.061 35.8416 280.273 35.7709 280.485C35.7002 280.697 35.7709 280.98 35.9123 281.192L36.1951 281.757C36.2658 281.969 36.4778 282.11 36.6899 282.251C36.902 282.322 37.1848 282.322 37.3969 282.251L37.8917 281.969C38.1038 281.827 38.2452 281.615 38.3159 281.403C38.3866 281.121 38.3159 280.909 38.1745 280.697Z" fill="#876036"/>
<path d="M32.3776 284.441L32.5897 284.017C32.6604 283.876 32.8018 283.734 32.9432 283.664C33.0846 283.593 33.2966 283.593 33.438 283.664L33.7915 283.876C33.8622 283.946 33.9329 284.017 34.0036 284.088C34.0743 284.158 34.0743 284.229 34.145 284.299C34.145 284.37 34.145 284.511 34.145 284.582C34.145 284.653 34.0743 284.723 34.0743 284.794L33.8622 285.218C33.7915 285.359 33.6501 285.5 33.5087 285.571C33.3673 285.641 33.1553 285.641 33.0139 285.571L32.6604 285.359C32.5897 285.288 32.519 285.218 32.4483 285.147C32.3776 285.076 32.3776 285.006 32.3069 284.935C32.3069 284.864 32.3069 284.723 32.3069 284.653C32.3069 284.582 32.3069 284.511 32.3776 284.441Z" fill="#876036"/>
<path d="M36.4072 287.76L35.983 287.478C35.8416 287.337 35.6295 287.337 35.4881 287.337C35.2761 287.337 35.1347 287.478 35.064 287.619L34.8519 287.972C34.7812 288.043 34.7812 288.114 34.7812 288.255C34.7812 288.326 34.7812 288.467 34.7812 288.537C34.7812 288.608 34.8519 288.679 34.9226 288.749C34.9933 288.82 35.064 288.891 35.1347 288.891L35.5588 289.173C35.7002 289.314 35.9123 289.314 36.0537 289.314C36.2658 289.314 36.4072 289.173 36.4778 289.032L36.6899 288.679C36.7606 288.608 36.7606 288.537 36.7606 288.396C36.7606 288.326 36.7606 288.184 36.7606 288.114C36.7606 288.043 36.6899 287.972 36.6192 287.902C36.5485 287.831 36.4778 287.831 36.4072 287.76Z" fill="#876036"/>
<path d="M32.2362 291.575L32.519 291.363C32.6604 291.292 32.7311 291.222 32.8725 291.292C33.0139 291.292 33.1553 291.363 33.226 291.504L33.3673 291.787C33.438 291.928 33.438 291.998 33.3673 292.14C33.2967 292.281 33.226 292.352 33.1553 292.422L32.8725 292.634C32.7311 292.705 32.6604 292.775 32.519 292.705C32.3776 292.634 32.2362 292.634 32.1656 292.493L32.0242 292.21C31.9535 292.069 31.9535 291.998 32.0242 291.857C32.0949 291.787 32.1656 291.645 32.2362 291.575Z" fill="#876036"/>
<path d="M158.848 309.304L158.636 309.162C158.636 309.162 158.566 309.092 158.495 309.092C158.424 309.092 158.424 309.092 158.353 309.092C158.283 309.092 158.283 309.092 158.212 309.162L158.141 309.233L158.071 309.374C158 309.445 158 309.516 158.071 309.586C158.071 309.657 158.141 309.727 158.212 309.798L158.424 309.939C158.495 310.01 158.566 310.01 158.636 310.01C158.707 310.01 158.778 309.939 158.848 309.869L158.919 309.727C158.99 309.657 158.99 309.586 158.919 309.516C158.99 309.374 158.919 309.304 158.848 309.304Z" fill="#634A2B"/>
<path d="M156.091 310.646L156.233 310.575C156.303 310.504 156.374 310.504 156.445 310.504C156.515 310.504 156.586 310.504 156.657 310.575L156.728 310.716C156.798 310.787 156.728 310.999 156.586 311.069L156.445 311.14C156.374 311.211 156.303 311.211 156.233 311.211C156.162 311.211 156.091 311.211 156.021 311.14L155.95 310.999C155.879 310.858 155.95 310.716 156.091 310.646Z" fill="#634A2B"/>
<path d="M157.929 312.694L157.788 312.623C157.717 312.623 157.647 312.553 157.647 312.553C157.576 312.553 157.505 312.623 157.505 312.623L157.434 312.765V312.835V312.906C157.434 312.906 157.434 312.977 157.505 312.977L157.576 313.047L157.717 313.118C157.788 313.188 157.859 313.188 157.859 313.188C157.929 313.188 158 313.118 158 313.118L158.071 312.977V312.906V312.835C158.071 312.835 158 312.765 157.929 312.694C158 312.694 158 312.765 157.929 312.694Z" fill="#634A2B"/>
<path d="M159.131 314.954L159.06 314.884C158.99 314.884 158.99 314.813 158.919 314.884C158.848 314.884 158.848 314.884 158.778 314.954L158.707 315.025V315.096V315.166V315.237C158.707 315.237 158.707 315.237 158.778 315.307L158.848 315.378H158.919H158.99H159.06C159.06 315.378 159.131 315.378 159.131 315.307L159.202 315.237V315.166V315.096C159.202 315.025 159.202 315.025 159.131 314.954Z" fill="#634A2B"/>
<path d="M242.267 333.319L242.055 332.966C241.984 332.825 241.843 332.683 241.701 332.683C241.56 332.613 241.418 332.613 241.277 332.683L240.923 332.825C240.853 332.895 240.782 332.895 240.782 332.966C240.711 333.036 240.711 333.107 240.711 333.178C240.711 333.248 240.711 333.319 240.711 333.39C240.711 333.46 240.782 333.531 240.782 333.602L240.994 333.955C241.065 334.096 241.206 334.237 241.348 334.237C241.489 334.308 241.63 334.308 241.772 334.237L242.055 334.096C242.125 334.025 242.196 334.025 242.196 333.955C242.267 333.884 242.267 333.813 242.267 333.743C242.267 333.672 242.267 333.602 242.267 333.531C242.337 333.46 242.337 333.39 242.267 333.319Z" fill="#714E29"/>
<path d="M236.187 336.074L236.399 335.65C236.399 335.579 236.47 335.509 236.54 335.438C236.611 335.367 236.682 335.297 236.753 335.297C236.823 335.297 236.894 335.226 237.035 335.226C237.106 335.226 237.177 335.226 237.318 335.297L237.672 335.509C237.742 335.579 237.813 335.65 237.884 335.721C237.954 335.791 237.954 335.862 237.954 335.932C237.954 336.003 237.954 336.074 237.954 336.215C237.954 336.286 237.884 336.356 237.884 336.427L237.672 336.851C237.672 336.921 237.601 336.992 237.53 337.063C237.46 337.133 237.389 337.204 237.318 337.204C237.247 337.204 237.177 337.274 237.035 337.274C236.965 337.274 236.894 337.274 236.753 337.204L236.399 336.992C236.328 336.921 236.258 336.851 236.187 336.78C236.116 336.709 236.116 336.639 236.116 336.568C236.116 336.498 236.116 336.427 236.116 336.286C236.116 336.215 236.187 336.144 236.187 336.074Z" fill="#714E29"/>
<path d="M241.63 342.289L241.348 342.148C241.277 342.078 241.136 342.078 240.994 342.078C240.853 342.078 240.782 342.148 240.711 342.219L240.57 342.431C240.57 342.501 240.499 342.501 240.499 342.572C240.499 342.643 240.499 342.713 240.499 342.713C240.499 342.784 240.57 342.855 240.57 342.855C240.641 342.925 240.641 342.925 240.711 342.996L240.994 343.137C241.065 343.208 241.206 343.208 241.348 343.208C241.489 343.208 241.56 343.137 241.63 343.066L241.772 342.855C241.843 342.784 241.843 342.643 241.843 342.501C241.772 342.431 241.701 342.289 241.63 342.289Z" fill="#714E29"/>
<path d="M236.611 342.148L236.894 342.007C236.965 341.936 237.035 341.936 237.177 341.936C237.247 341.936 237.389 342.007 237.46 342.007L237.601 342.219C237.672 342.36 237.601 342.572 237.389 342.713L237.106 342.855C237.035 342.925 236.965 342.996 236.823 342.996C236.753 342.996 236.611 342.925 236.54 342.855L236.399 342.713C236.258 342.501 236.399 342.289 236.611 342.148Z" fill="#714E29"/>
<path d="M237.813 351.613L237.672 351.825C237.601 351.896 237.601 351.966 237.601 352.037C237.601 352.107 237.601 352.178 237.672 352.249L237.813 352.319C237.884 352.39 238.096 352.319 238.237 352.178L238.379 351.966C238.449 351.896 238.449 351.825 238.449 351.754C238.449 351.684 238.449 351.613 238.379 351.542L238.237 351.472C238.096 351.401 237.884 351.472 237.813 351.613Z" fill="#714E29"/>
<path d="M239.368 345.115L239.156 344.974C239.085 344.903 239.015 344.903 238.944 344.903C238.873 344.903 238.803 344.974 238.732 345.044L238.591 345.185C238.591 345.256 238.591 345.256 238.52 345.327C238.52 345.397 238.52 345.397 238.52 345.468C238.52 345.539 238.52 345.539 238.591 345.609L238.661 345.68L238.873 345.821C238.944 345.892 239.015 345.892 239.085 345.892C239.156 345.892 239.227 345.821 239.298 345.75L239.439 345.609C239.51 345.539 239.51 345.468 239.439 345.397C239.368 345.327 239.439 345.185 239.368 345.115Z" fill="#714E29"/>
<path d="M241.065 348.435L240.923 348.364C240.853 348.293 240.782 348.293 240.711 348.293C240.641 348.293 240.57 348.364 240.57 348.364L240.499 348.505C240.499 348.576 240.429 348.646 240.499 348.717C240.499 348.788 240.57 348.858 240.641 348.858L240.782 348.929C240.853 349 240.923 349 240.994 349C241.065 349 241.136 348.929 241.136 348.929L241.206 348.788V348.717V348.646C241.206 348.646 241.206 348.576 241.136 348.576C241.136 348.435 241.065 348.435 241.065 348.435Z" fill="#714E29"/>
<path d="M242.196 338.122L242.408 337.769C242.479 337.628 242.62 337.486 242.762 337.486C242.903 337.416 243.044 337.416 243.186 337.486L243.468 337.628C243.539 337.698 243.61 337.698 243.61 337.769C243.681 337.84 243.681 337.91 243.681 337.981C243.681 338.051 243.681 338.122 243.681 338.193C243.681 338.263 243.61 338.334 243.61 338.405L243.398 338.758C243.327 338.899 243.186 339.04 243.044 339.04C242.903 339.111 242.762 339.111 242.62 339.04L242.267 338.899C242.196 338.828 242.125 338.828 242.125 338.758C242.055 338.687 242.055 338.616 242.055 338.546C242.055 338.475 242.055 338.405 242.055 338.334C242.055 338.263 242.196 338.193 242.196 338.122Z" fill="#714E29"/>
<path d="M248.276 340.877L248.064 340.453C248.064 340.382 247.993 340.312 247.922 340.241C247.851 340.17 247.781 340.1 247.71 340.1C247.639 340.1 247.569 340.029 247.427 340.029C247.357 340.029 247.286 340.029 247.145 340.1L246.791 340.312C246.72 340.382 246.65 340.453 246.579 340.524C246.508 340.594 246.508 340.665 246.508 340.736C246.508 340.806 246.508 340.877 246.508 341.018C246.508 341.089 246.579 341.159 246.579 341.23L246.791 341.654C246.791 341.724 246.862 341.795 246.932 341.866C247.003 341.936 247.074 342.007 247.145 342.007C247.215 342.007 247.286 342.078 247.427 342.078C247.498 342.078 247.569 342.078 247.71 342.007L248.064 341.795C248.134 341.724 248.205 341.654 248.276 341.583C248.346 341.512 248.346 341.442 248.346 341.371C248.346 341.301 248.346 341.23 248.346 341.089C248.346 341.018 248.346 340.947 248.276 340.877Z" fill="#714E29"/>
<path d="M243.822 344.974L244.105 344.832C244.175 344.762 244.175 344.762 244.246 344.762C244.317 344.762 244.387 344.762 244.458 344.762C244.529 344.762 244.6 344.762 244.6 344.832C244.67 344.832 244.67 344.903 244.741 344.974L244.882 345.185C244.882 345.256 244.953 345.256 244.953 345.327C244.953 345.397 244.953 345.468 244.953 345.468C244.953 345.539 244.882 345.609 244.882 345.609C244.812 345.68 244.812 345.68 244.741 345.75L244.458 345.892C244.387 345.962 244.387 345.962 244.317 345.962C244.246 345.962 244.175 345.962 244.105 345.962C244.034 345.962 243.963 345.962 243.963 345.892C243.893 345.892 243.893 345.821 243.822 345.75L243.681 345.539C243.681 345.468 243.61 345.468 243.61 345.397C243.61 345.327 243.61 345.256 243.61 345.256C243.61 345.185 243.681 345.115 243.681 345.115C243.751 345.044 243.751 344.974 243.822 344.974Z" fill="#714E29"/>
<path d="M247.922 346.951L247.71 346.81C247.639 346.739 247.498 346.669 247.427 346.669C247.357 346.669 247.215 346.739 247.145 346.81L247.003 346.951C246.932 347.093 247.003 347.304 247.215 347.446L247.427 347.587C247.498 347.658 247.569 347.658 247.71 347.658C247.851 347.658 247.922 347.587 247.993 347.587L248.134 347.375C248.205 347.304 248.134 347.093 247.922 346.951Z" fill="#714E29"/>
<path d="M245.165 349.988L245.377 349.847C245.448 349.777 245.519 349.777 245.589 349.777C245.66 349.777 245.731 349.847 245.801 349.918L245.943 350.059C245.943 350.13 245.943 350.13 246.013 350.2C246.013 350.271 246.013 350.271 246.013 350.342C246.013 350.412 246.013 350.412 245.943 350.483L245.872 350.554L245.66 350.695C245.589 350.765 245.519 350.765 245.448 350.765C245.377 350.765 245.306 350.695 245.236 350.624L245.094 350.483C245.094 350.412 245.024 350.412 245.024 350.342C245.024 350.271 245.024 350.271 245.024 350.2C245.024 350.13 245.024 350.13 245.094 350.059C245.094 349.988 245.094 349.988 245.165 349.988Z" fill="#714E29"/>
<path d="M243.398 353.238L243.539 353.167C243.61 353.096 243.681 353.096 243.751 353.096C243.822 353.096 243.893 353.167 243.893 353.167L243.963 353.308V353.379V353.45C243.963 353.45 243.963 353.52 243.893 353.52L243.822 353.591L243.681 353.661C243.61 353.732 243.539 353.732 243.468 353.732C243.398 353.732 243.327 353.661 243.327 353.661L243.256 353.52C243.256 353.45 243.186 353.379 243.256 353.308C243.327 353.308 243.398 353.238 243.398 353.238Z" fill="#714E29"/>
<path d="M182.955 337.063L182.46 337.84C182.389 337.981 182.248 338.122 182.106 338.263C181.965 338.405 181.824 338.475 181.612 338.475C181.4 338.546 181.258 338.546 181.046 338.546C180.834 338.546 180.693 338.475 180.551 338.405L179.774 337.91C179.632 337.84 179.491 337.698 179.349 337.557C179.208 337.416 179.137 337.274 179.137 337.063C179.067 336.851 179.067 336.709 179.137 336.497C179.137 336.286 179.208 336.144 179.349 336.003L179.844 335.226C180.056 334.873 180.339 334.661 180.693 334.59C181.046 334.52 181.4 334.52 181.753 334.732L182.531 335.226C182.672 335.297 182.813 335.438 182.955 335.579C183.096 335.721 183.167 335.862 183.167 336.074C183.238 336.286 183.238 336.427 183.167 336.639C183.096 336.709 183.096 336.921 182.955 337.063Z" fill="#876036"/>
<path d="M188.752 340.1L188.398 340.736C188.257 341.018 188.045 341.159 187.833 341.301C187.55 341.371 187.267 341.371 187.055 341.23L186.489 340.947C186.277 340.806 186.136 340.524 186.065 340.241C185.995 339.959 186.065 339.676 186.207 339.464L186.56 338.828C186.702 338.546 186.914 338.405 187.196 338.263C187.479 338.193 187.762 338.193 187.974 338.334L188.54 338.687C188.752 338.828 188.893 339.111 188.964 339.393C188.964 339.605 188.964 339.888 188.752 340.1Z" fill="#563A21"/>
<path d="M183.591 343.066L183.308 343.561C183.238 343.773 183.026 343.914 182.813 343.985C182.601 344.055 182.389 344.055 182.177 343.985L181.753 343.773C181.682 343.702 181.612 343.631 181.541 343.561C181.47 343.49 181.4 343.349 181.4 343.278C181.4 343.208 181.4 343.066 181.4 342.925C181.4 342.784 181.47 342.713 181.541 342.643L181.824 342.148C181.894 341.936 182.106 341.795 182.319 341.724C182.531 341.654 182.743 341.654 182.955 341.724L183.379 341.936C183.45 342.007 183.52 342.078 183.591 342.148C183.662 342.219 183.732 342.36 183.732 342.431C183.732 342.572 183.732 342.643 183.732 342.784C183.662 342.925 183.662 342.996 183.591 343.066Z" fill="#876036"/>
<path d="M186.702 345.962L186.489 345.539C186.419 345.397 186.277 345.256 186.065 345.185C185.853 345.115 185.712 345.115 185.5 345.185L185.146 345.397C185.076 345.468 185.005 345.539 184.934 345.609C184.864 345.68 184.864 345.75 184.793 345.892C184.793 345.962 184.793 346.104 184.793 346.174C184.793 346.245 184.864 346.386 184.864 346.457L185.076 346.881C185.146 347.022 185.288 347.163 185.5 347.234C185.712 347.304 185.853 347.304 186.065 347.234L186.419 347.022C186.489 346.951 186.56 346.881 186.631 346.81C186.702 346.739 186.702 346.669 186.772 346.527C186.772 346.457 186.772 346.316 186.772 346.245C186.772 346.104 186.772 346.033 186.702 345.962Z" fill="#876036"/>
<path d="M177.653 357.97L177.511 357.758C177.441 357.688 177.37 357.617 177.299 357.546C177.229 357.476 177.087 357.546 177.017 357.546L176.804 357.617C176.734 357.688 176.663 357.758 176.663 357.829C176.663 357.899 176.663 358.041 176.734 358.111L176.875 358.323C176.946 358.394 177.017 358.465 177.087 358.535C177.158 358.606 177.299 358.535 177.37 358.535L177.582 358.465C177.653 358.465 177.653 358.394 177.653 358.394C177.653 358.323 177.723 358.323 177.723 358.253C177.723 358.182 177.723 358.182 177.723 358.111C177.653 358.111 177.653 358.041 177.653 357.97Z" fill="#876036"/>
<path d="M176.168 353.379L176.027 353.167C175.956 353.096 175.885 353.026 175.815 352.955C175.744 352.955 175.603 352.955 175.532 352.955L175.32 353.026C175.249 353.026 175.249 353.096 175.249 353.096C175.249 353.167 175.179 353.167 175.179 353.238C175.179 353.308 175.179 353.308 175.179 353.379C175.179 353.45 175.179 353.45 175.249 353.52L175.391 353.732C175.461 353.803 175.532 353.873 175.603 353.944C175.673 353.944 175.815 353.944 175.885 353.944L176.098 353.873C176.168 353.873 176.168 353.803 176.168 353.803C176.168 353.732 176.239 353.732 176.239 353.661C176.239 353.591 176.239 353.591 176.239 353.52C176.168 353.45 176.168 353.379 176.168 353.379Z" fill="#876036"/>
<path d="M178.643 347.446L178.855 347.092C178.925 346.951 178.996 346.881 179.137 346.81C179.279 346.739 179.42 346.739 179.562 346.81L179.844 346.951C179.915 347.022 179.986 347.022 179.986 347.092C180.056 347.163 180.056 347.234 180.056 347.304C180.056 347.375 180.056 347.446 180.056 347.516C180.056 347.587 179.986 347.658 179.986 347.728L179.774 348.081C179.703 348.223 179.632 348.293 179.491 348.364C179.349 348.435 179.208 348.435 179.067 348.364L178.784 348.223C178.713 348.152 178.643 348.152 178.643 348.081C178.572 348.011 178.572 347.94 178.572 347.869C178.572 347.799 178.572 347.728 178.572 347.658C178.572 347.587 178.572 347.516 178.643 347.446Z" fill="#876036"/>
<path d="M188.257 349.07L188.469 348.717C188.54 348.576 188.61 348.505 188.752 348.435C188.893 348.364 189.034 348.364 189.176 348.435L189.459 348.576C189.529 348.646 189.6 348.646 189.6 348.717C189.671 348.788 189.671 348.858 189.671 348.929C189.671 349 189.671 349.07 189.671 349.141C189.671 349.212 189.6 349.282 189.6 349.353L189.459 349.635C189.388 349.777 189.317 349.847 189.176 349.918C189.034 349.988 188.893 349.988 188.752 349.918L188.469 349.777C188.398 349.706 188.328 349.706 188.328 349.635C188.257 349.565 188.257 349.494 188.257 349.423C188.257 349.353 188.257 349.282 188.257 349.212C188.186 349.141 188.257 349.141 188.257 349.07Z" fill="#563A21"/>
<path d="M192.357 352.673L192.216 352.39C192.145 352.249 192.074 352.178 191.933 352.178C191.792 352.107 191.721 352.107 191.579 352.178L191.367 352.319C191.297 352.319 191.297 352.39 191.226 352.461C191.226 352.531 191.155 352.531 191.155 352.602C191.155 352.673 191.155 352.743 191.155 352.743C191.155 352.814 191.155 352.884 191.226 352.884L191.367 353.167C191.438 353.308 191.509 353.379 191.65 353.379C191.792 353.45 191.862 353.45 192.004 353.379L192.216 353.238C192.286 353.238 192.286 353.167 192.357 353.096C192.357 353.026 192.428 353.026 192.428 352.955C192.428 352.884 192.428 352.814 192.428 352.814C192.428 352.743 192.428 352.673 192.357 352.673Z" fill="#563A21"/>
<path d="M186.631 352.743L186.489 352.461C186.419 352.39 186.348 352.319 186.277 352.249C186.207 352.178 186.065 352.249 185.995 352.249L185.783 352.39C185.712 352.39 185.712 352.461 185.641 352.531C185.641 352.602 185.57 352.602 185.57 352.673C185.57 352.743 185.57 352.743 185.57 352.814C185.57 352.884 185.57 352.884 185.641 352.955L185.783 353.238C185.853 353.308 185.924 353.379 185.995 353.45C186.065 353.52 186.207 353.45 186.277 353.45L186.489 353.308C186.56 353.308 186.56 353.238 186.631 353.167C186.631 353.096 186.702 353.096 186.702 353.026C186.702 352.955 186.702 352.955 186.702 352.884C186.631 352.814 186.631 352.814 186.631 352.743Z" fill="#876036"/>
<path d="M184.157 349.918L183.945 349.565C183.874 349.423 183.732 349.282 183.591 349.212C183.45 349.141 183.238 349.141 183.096 349.212L182.743 349.353C182.672 349.423 182.601 349.423 182.601 349.494C182.531 349.565 182.531 349.635 182.531 349.706C182.531 349.777 182.531 349.847 182.531 349.918C182.531 349.988 182.601 350.059 182.601 350.13L182.813 350.483C182.884 350.624 183.026 350.765 183.167 350.765C183.308 350.836 183.52 350.836 183.662 350.765L184.015 350.624C184.086 350.554 184.157 350.554 184.157 350.483C184.227 350.412 184.227 350.342 184.227 350.271C184.227 350.2 184.227 350.13 184.227 350.059C184.227 350.059 184.157 349.988 184.157 349.918Z" fill="#563A21"/>
<path d="M180.056 353.661L180.268 353.52C180.339 353.45 180.481 353.45 180.551 353.45C180.693 353.45 180.763 353.52 180.834 353.591L180.975 353.803C180.975 353.873 181.046 353.873 181.046 353.944C181.046 354.015 181.046 354.015 181.046 354.085C181.046 354.156 180.975 354.156 180.975 354.226C180.975 354.297 180.905 354.297 180.834 354.297L180.622 354.438C180.551 354.509 180.41 354.509 180.339 354.509C180.198 354.509 180.127 354.438 180.056 354.368L179.915 354.156C179.844 354.085 179.844 353.944 179.844 353.873C179.915 353.803 179.986 353.732 180.056 353.661Z" fill="#876036"/>
<path d="M183.803 355.498L183.591 355.357C183.52 355.286 183.45 355.286 183.308 355.286C183.238 355.286 183.096 355.286 183.025 355.357L182.884 355.498C182.884 355.569 182.884 355.71 182.884 355.78C182.884 355.851 182.955 355.922 183.096 355.992L183.308 356.134C183.379 356.204 183.45 356.204 183.591 356.204C183.662 356.204 183.803 356.204 183.874 356.134L184.015 355.992C184.086 355.851 183.945 355.639 183.803 355.498Z" fill="#563A21"/>
<path d="M184.439 361.502L184.581 361.643C184.651 361.714 184.651 361.784 184.651 361.855C184.651 361.926 184.651 361.996 184.581 362.067L184.439 362.137C184.369 362.208 184.157 362.137 184.086 362.067L183.945 361.926C183.874 361.855 183.874 361.784 183.874 361.714C183.874 361.643 183.874 361.572 183.945 361.502L184.086 361.431C184.157 361.36 184.298 361.36 184.439 361.502Z" fill="#563A21"/>
<path d="M181.258 358.253L181.47 358.111C181.541 358.041 181.612 358.041 181.682 358.041C181.753 358.041 181.824 358.111 181.894 358.182L181.965 358.323C181.965 358.323 181.965 358.394 182.036 358.464C182.036 358.535 182.036 358.535 182.036 358.606C182.036 358.676 182.036 358.676 181.965 358.676L181.894 358.747L181.682 358.888C181.612 358.959 181.541 358.959 181.47 358.959C181.4 358.959 181.329 358.888 181.258 358.818L181.187 358.676C181.117 358.606 181.117 358.535 181.187 358.464C181.187 358.394 181.187 358.323 181.258 358.253Z" fill="#876036"/>
<path d="M179.703 361.219L179.844 361.149C179.915 361.149 179.986 361.078 179.986 361.078C180.056 361.078 180.127 361.149 180.127 361.149L180.198 361.29C180.198 361.36 180.268 361.431 180.198 361.502C180.198 361.572 180.127 361.643 180.056 361.643L179.915 361.714C179.844 361.784 179.774 361.784 179.774 361.784C179.703 361.784 179.632 361.714 179.632 361.714L179.562 361.572V361.502V361.431C179.632 361.36 179.632 361.36 179.703 361.219C179.703 361.29 179.703 361.29 179.703 361.219Z" fill="#876036"/>
<path d="M190.59 358.253L190.519 358.182C190.519 358.182 190.448 358.111 190.378 358.111C190.307 358.111 190.307 358.111 190.236 358.182L190.166 358.253V358.323V358.394V358.464C190.166 358.464 190.166 358.464 190.236 358.535L190.307 358.606C190.378 358.606 190.378 358.676 190.448 358.606C190.519 358.606 190.519 358.606 190.59 358.535L190.66 358.464V358.394V358.323C190.66 358.323 190.66 358.323 190.59 358.253C190.66 358.253 190.66 358.253 190.59 358.253Z" fill="#876036"/>
<path d="M185.853 357.617L185.641 357.476C185.57 357.405 185.5 357.405 185.429 357.405C185.358 357.405 185.288 357.476 185.217 357.546L185.146 357.688C185.076 357.758 185.076 357.829 185.146 357.899C185.146 357.97 185.217 358.041 185.288 358.111L185.5 358.253L185.57 358.323C185.641 358.323 185.641 358.323 185.712 358.323C185.783 358.323 185.783 358.323 185.853 358.253L185.924 358.182L185.995 358.041C185.995 358.041 185.995 357.97 186.065 357.899C186.065 357.829 186.065 357.829 186.065 357.758C186.065 357.688 186.065 357.688 185.995 357.688C185.853 357.688 185.853 357.688 185.853 357.617Z" fill="#563A21"/>
<path d="M188.257 359.736L188.115 359.665C188.045 359.595 187.974 359.595 187.903 359.595C187.833 359.595 187.762 359.665 187.762 359.665L187.691 359.807V359.877V359.948C187.691 359.948 187.691 360.018 187.762 360.018L187.833 360.089L187.974 360.16C188.045 360.23 188.115 360.23 188.186 360.23C188.257 360.23 188.328 360.16 188.328 360.16L188.398 360.018V359.948V359.877C188.398 359.877 188.398 359.807 188.328 359.807C188.328 359.736 188.328 359.736 188.257 359.736Z" fill="#563A21"/>
<path d="M189.317 355.922L189.105 356.063C189.034 356.134 188.964 356.134 188.822 356.134C188.752 356.134 188.681 356.063 188.61 355.992L188.469 355.78C188.398 355.71 188.398 355.639 188.469 355.498C188.469 355.427 188.54 355.357 188.61 355.286L188.822 355.145C188.893 355.074 188.964 355.074 189.105 355.074C189.176 355.074 189.317 355.145 189.317 355.215L189.459 355.427C189.529 355.498 189.529 355.639 189.459 355.71C189.459 355.78 189.388 355.851 189.317 355.922Z" fill="#563A21"/>
<path d="M110.14 303.724L109.928 303.3C109.928 303.229 109.858 303.159 109.787 303.088C109.716 303.017 109.646 302.947 109.575 302.947C109.504 302.947 109.434 302.876 109.292 302.876C109.151 302.876 109.08 302.876 109.009 302.947L108.656 303.159C108.585 303.229 108.515 303.3 108.444 303.37C108.373 303.441 108.373 303.512 108.373 303.582C108.373 303.653 108.373 303.724 108.373 303.865C108.373 303.936 108.444 304.006 108.444 304.077L108.656 304.501C108.656 304.571 108.727 304.642 108.797 304.712C108.868 304.783 108.939 304.854 109.009 304.854C109.08 304.854 109.151 304.924 109.292 304.924C109.363 304.924 109.504 304.924 109.575 304.854L109.928 304.642C109.999 304.571 110.07 304.501 110.14 304.43C110.211 304.359 110.211 304.289 110.211 304.218C110.211 304.147 110.211 304.077 110.211 303.936C110.282 303.865 110.211 303.794 110.14 303.724Z" fill="#876036"/>
<path d="M105.758 306.549L106.04 306.337C106.111 306.266 106.182 306.266 106.182 306.266C106.252 306.266 106.323 306.266 106.394 306.266C106.464 306.266 106.535 306.266 106.606 306.337C106.677 306.408 106.747 306.408 106.747 306.478L106.889 306.761C106.959 306.902 106.959 307.043 106.889 307.185C106.818 307.326 106.747 307.397 106.606 307.467L106.323 307.679C106.252 307.75 106.182 307.75 106.182 307.75C106.111 307.75 106.04 307.75 105.97 307.75C105.899 307.75 105.828 307.75 105.758 307.679C105.687 307.679 105.616 307.608 105.616 307.538L105.475 307.255C105.404 307.114 105.404 306.973 105.475 306.831C105.545 306.761 105.616 306.62 105.758 306.549Z" fill="#876036"/>
<path d="M100.738 347.093L101.233 347.94C101.445 348.293 101.728 348.505 102.081 348.576C102.435 348.646 102.859 348.646 103.213 348.435L104.061 347.94C104.414 347.728 104.626 347.446 104.768 347.093C104.838 346.739 104.838 346.316 104.626 345.962L104.132 345.115C103.919 344.762 103.637 344.55 103.283 344.408C102.93 344.338 102.506 344.338 102.152 344.55L101.304 345.044C100.95 345.256 100.738 345.539 100.668 345.892C100.455 346.386 100.526 346.81 100.738 347.093Z" fill="#876036"/>
<path d="M100.173 353.803L100.385 353.379C100.455 353.308 100.455 353.238 100.526 353.167C100.597 353.096 100.668 353.026 100.738 353.026C100.809 353.026 100.88 352.955 101.021 352.955C101.092 352.955 101.233 352.955 101.304 353.026L101.657 353.238C101.728 353.308 101.799 353.379 101.869 353.45C101.94 353.52 101.94 353.591 102.011 353.661C102.011 353.732 102.011 353.803 102.011 353.944C102.011 354.015 101.94 354.085 101.94 354.156L101.728 354.58C101.728 354.65 101.657 354.721 101.587 354.792C101.516 354.862 101.445 354.933 101.374 354.933C101.304 354.933 101.233 355.003 101.092 355.003C101.021 355.003 100.88 355.003 100.809 354.933L100.455 354.721C100.385 354.65 100.314 354.58 100.243 354.509C100.173 354.438 100.173 354.368 100.102 354.297C100.102 354.227 100.102 354.156 100.102 354.015C100.102 354.015 100.102 353.873 100.173 353.803Z" fill="#876036"/>
<path d="M104.202 357.829L104.061 357.546C103.99 357.405 103.919 357.334 103.778 357.264C103.637 357.193 103.495 357.193 103.425 357.264L103.142 357.405C103 357.476 102.93 357.546 102.93 357.688C102.93 357.829 102.93 357.97 103 358.041L103.142 358.323C103.142 358.394 103.213 358.464 103.283 358.464C103.354 358.535 103.354 358.535 103.425 358.606C103.495 358.606 103.566 358.676 103.637 358.606C103.707 358.606 103.778 358.606 103.849 358.535L104.132 358.394C104.202 358.394 104.202 358.323 104.273 358.253C104.344 358.182 104.344 358.111 104.344 358.111C104.344 358.041 104.344 357.97 104.344 357.899C104.273 357.899 104.273 357.829 104.202 357.829Z" fill="#876036"/>
<path d="M100.738 360.513L100.809 360.301C100.809 360.23 100.88 360.16 100.95 360.16C101.021 360.16 101.092 360.16 101.162 360.16L101.304 360.23C101.374 360.23 101.374 360.301 101.374 360.301C101.374 360.301 101.445 360.372 101.445 360.442C101.445 360.513 101.445 360.513 101.445 360.584C101.445 360.654 101.445 360.654 101.374 360.725L101.304 360.937C101.304 361.007 101.233 361.078 101.162 361.078C101.092 361.078 101.021 361.078 100.95 361.078L100.809 361.007C100.738 360.937 100.668 360.866 100.668 360.795C100.668 360.654 100.668 360.583 100.738 360.513Z" fill="#876036"/>
<path d="M309.001 116.898H266.02C265.525 116.969 265.03 117.181 264.677 117.605C264.323 118.028 264.182 118.523 264.182 119.017V120.289H310.839V119.017C310.91 118.523 310.698 117.958 310.345 117.605C309.991 117.181 309.567 116.969 309.001 116.898Z" fill="#39D344"/>
<path d="M274.998 141.832L264.323 120.571C264.252 120.501 264.252 120.359 264.252 120.289C264.252 120.218 264.252 120.077 264.323 120.006C264.394 119.935 264.464 119.865 264.535 119.794C264.606 119.724 264.747 119.724 264.818 119.724H304.83C304.901 119.724 305.043 119.724 305.113 119.794C305.184 119.865 305.255 119.935 305.325 120.006C305.396 120.077 305.396 120.218 305.396 120.289C305.396 120.359 305.396 120.501 305.325 120.571L294.58 141.832C293.661 143.668 292.247 145.152 290.55 146.211C288.854 147.271 286.804 147.836 284.824 147.836C282.774 147.836 280.795 147.271 279.098 146.211C277.26 145.152 275.917 143.668 274.998 141.832Z" fill="#714E29"/>
<path d="M283.481 135.828L275.775 120.571C275.705 120.501 275.705 120.359 275.705 120.289C275.705 120.218 275.705 120.077 275.775 120.006C275.846 119.935 275.917 119.865 275.987 119.794C276.058 119.724 276.2 119.724 276.27 119.724H310.203C310.274 119.724 310.415 119.724 310.486 119.794C310.557 119.865 310.627 119.935 310.698 120.006C310.769 120.077 310.769 120.218 310.769 120.289C310.769 120.359 310.769 120.501 310.698 120.571L302.992 135.828C302.073 137.664 300.66 139.148 298.963 140.207C297.196 141.267 295.216 141.832 293.237 141.832C291.187 141.832 289.207 141.267 287.511 140.207C285.814 139.148 284.4 137.664 283.481 135.828Z" fill="#876036"/>
<path d="M284.895 156.947L285.46 157.936C285.672 158.289 285.955 158.643 286.379 158.784C286.804 158.925 287.228 158.925 287.581 158.713L288.43 158.219C288.783 158.007 288.995 157.583 289.136 157.159C289.207 156.736 289.136 156.312 288.924 155.959L288.359 154.97C288.147 154.617 287.864 154.263 287.44 154.122C287.016 153.981 286.591 153.981 286.238 154.193L285.39 154.687C285.036 154.899 284.824 155.323 284.753 155.747C284.612 156.17 284.683 156.594 284.895 156.947Z" fill="#714E29"/>
<path d="M290.268 161.821L290.692 162.527C290.833 162.81 291.045 163.022 291.328 163.163C291.611 163.304 291.964 163.234 292.247 163.163L292.883 162.81C293.025 162.739 293.095 162.598 293.237 162.527C293.307 162.386 293.378 162.245 293.449 162.104C293.449 161.962 293.519 161.821 293.449 161.68C293.449 161.539 293.378 161.397 293.307 161.256L292.883 160.55C292.742 160.267 292.53 160.055 292.176 159.914C291.893 159.773 291.54 159.843 291.257 159.914L290.621 160.267C290.48 160.338 290.409 160.479 290.268 160.55C290.197 160.691 290.126 160.832 290.055 160.974C290.055 161.115 289.985 161.256 290.055 161.397C290.126 161.539 290.197 161.68 290.268 161.821Z" fill="#876036"/>
<path d="M285.319 165.635L285.672 165C285.814 164.788 285.955 164.576 286.238 164.505C286.521 164.435 286.733 164.435 287.016 164.505L287.581 164.788C287.723 164.858 287.793 164.929 287.864 165.07C287.935 165.212 288.005 165.282 288.005 165.423C288.005 165.565 288.005 165.706 288.005 165.777C288.005 165.918 287.935 166.059 287.864 166.13L287.511 166.765C287.369 166.977 287.157 167.189 286.945 167.26C286.662 167.331 286.45 167.331 286.167 167.26L285.602 166.977C285.46 166.907 285.39 166.836 285.319 166.695C285.248 166.624 285.178 166.483 285.178 166.342C285.178 166.2 285.178 166.059 285.178 165.988C285.178 165.847 285.248 165.777 285.319 165.635Z" fill="#714E29"/>
<path d="M291.045 169.45L290.762 168.955C290.692 168.743 290.55 168.602 290.338 168.531C290.126 168.461 289.914 168.461 289.773 168.531L289.349 168.743C289.278 168.814 289.207 168.884 289.136 168.955C289.066 169.026 289.066 169.096 288.995 169.238C288.995 169.308 288.995 169.45 288.995 169.52C288.995 169.591 289.066 169.732 289.136 169.803L289.419 170.297C289.49 170.509 289.631 170.65 289.843 170.721C290.055 170.792 290.268 170.792 290.409 170.721L290.833 170.509C290.974 170.368 291.116 170.227 291.187 170.015C291.257 169.803 291.187 169.661 291.045 169.45Z" fill="#876036"/>
<path d="M285.885 172.981L286.097 172.628C286.167 172.487 286.309 172.416 286.45 172.345C286.592 172.275 286.733 172.275 286.874 172.345L287.157 172.487C287.228 172.557 287.298 172.557 287.298 172.628C287.369 172.699 287.369 172.769 287.369 172.84C287.369 172.911 287.369 172.981 287.369 173.052C287.369 173.122 287.298 173.193 287.298 173.264L287.086 173.617C287.016 173.758 286.874 173.829 286.733 173.899C286.591 173.97 286.45 173.97 286.309 173.899L286.026 173.758C285.885 173.688 285.814 173.546 285.814 173.405C285.743 173.264 285.814 173.122 285.885 172.981Z" fill="#876036"/>
<path d="M289.561 175.736L289.278 175.595C289.207 175.524 289.066 175.524 288.995 175.524C288.854 175.524 288.783 175.595 288.712 175.665L288.571 175.877C288.571 175.948 288.5 175.948 288.5 176.018C288.5 176.089 288.5 176.16 288.5 176.16C288.5 176.23 288.571 176.23 288.571 176.301C288.571 176.372 288.642 176.372 288.712 176.372L288.995 176.513C289.066 176.583 289.207 176.583 289.278 176.583C289.419 176.583 289.49 176.513 289.561 176.442L289.702 176.23C289.702 176.16 289.773 176.16 289.773 176.089C289.773 176.018 289.773 175.948 289.773 175.948C289.773 175.877 289.702 175.877 289.702 175.807C289.702 175.807 289.631 175.807 289.561 175.736Z" fill="#714E29"/>
<path d="M298.609 80.4515C298.044 80.1689 294.297 78.4737 290.833 80.5221C287.581 82.4292 287.086 86.1728 287.016 86.8791C287.016 86.9497 287.016 87.0204 287.086 87.091C287.086 87.1616 287.157 87.1616 287.228 87.2323C287.298 86.5966 287.864 82.7824 291.045 80.8753C294.156 79.0388 297.478 80.2395 298.539 80.6633C298.539 80.5927 298.539 80.5221 298.609 80.4515Z" fill="#D8E022" stroke="#231F20" stroke-width="0.5" stroke-miterlimit="10"/>
<path d="M300.73 81.0165C300.73 80.8046 300.659 80.5221 300.447 80.3808C300.306 80.1689 300.094 80.0276 299.882 80.0276C299.67 79.957 299.387 79.957 299.175 80.0276C298.963 80.0983 298.751 80.2395 298.609 80.4514C298.609 80.4514 298.609 80.5221 298.539 80.5221C298.468 80.5927 298.468 80.6633 298.468 80.734C298.397 80.9459 298.397 81.1578 298.397 81.3697C298.468 81.5816 298.539 81.7935 298.68 81.9347C298.821 82.076 299.034 82.2173 299.246 82.2879C299.458 82.3585 299.67 82.3585 299.882 82.2879L299.458 81.0871L300.73 81.0165Z" fill="#EF4623"/>
<path d="M295.357 96.2733C295.357 90.7639 290.904 86.314 285.39 86.314C279.876 86.314 275.422 90.7639 275.422 96.2733V112.66C275.422 113.155 275.634 113.649 275.987 114.002C276.341 114.355 276.836 114.567 277.331 114.567C277.826 114.567 278.32 114.355 278.674 114.002C279.027 113.649 279.239 113.155 279.239 112.66V111.106C279.239 110.894 279.31 110.753 279.451 110.612C279.593 110.471 279.734 110.4 279.946 110.4C280.158 110.4 280.3 110.471 280.441 110.612C280.583 110.753 280.653 110.894 280.653 111.106V112.66C280.653 112.943 280.724 113.155 280.795 113.367C280.865 113.579 281.007 113.79 281.219 114.002C281.431 114.214 281.643 114.355 281.855 114.426C282.067 114.497 282.35 114.567 282.562 114.567C283.057 114.567 283.552 114.355 283.905 114.002C284.259 113.649 284.471 113.155 284.471 112.66V111.106V111.036C284.471 110.965 284.471 110.824 284.541 110.753C284.541 110.683 284.612 110.612 284.683 110.541C284.753 110.471 284.824 110.4 284.895 110.4C284.966 110.4 285.036 110.329 285.178 110.329H285.39C285.602 110.329 285.743 110.4 285.885 110.541C286.026 110.683 286.097 110.824 286.097 111.036V112.66C286.097 113.155 286.309 113.649 286.662 114.002C287.016 114.355 287.511 114.567 288.005 114.567C288.5 114.567 288.995 114.355 289.349 114.002C289.702 113.649 289.914 113.155 289.914 112.66V111.106C289.914 110.965 289.985 110.753 290.126 110.683C290.268 110.541 290.409 110.541 290.621 110.541H290.833C291.045 110.541 291.187 110.612 291.328 110.753C291.469 110.894 291.54 111.036 291.54 111.248V113.013C291.611 113.437 291.823 113.861 292.176 114.214C292.53 114.497 292.954 114.709 293.449 114.709H293.519C294.014 114.709 294.509 114.497 294.863 114.144C295.216 113.79 295.428 113.296 295.428 112.802L295.357 96.2733Z" fill="#FBB040" stroke="#231F20" stroke-width="0.5" stroke-miterlimit="10"/>
<path d="M281.148 101.641C283.976 101.641 286.309 99.3106 286.309 96.4852C286.309 93.6599 283.976 91.329 281.148 91.329C278.32 91.329 275.987 93.6599 275.987 96.4852C275.987 99.3106 278.32 101.641 281.148 101.641Z" fill="white" stroke="#231F20" stroke-width="0.5" stroke-miterlimit="10"/>
<path d="M279.805 99.6637C281.431 99.6637 282.774 98.3217 282.774 96.6971C282.774 95.0726 281.431 93.7305 279.805 93.7305C278.179 93.7305 276.836 95.0726 276.836 96.6971C276.836 98.3217 278.179 99.6637 279.805 99.6637Z" fill="#231F20" stroke="#231F20" stroke-miterlimit="10"/>
<path d="M278.886 98.6042C279.805 98.6042 280.512 97.8979 280.512 96.9797C280.512 96.0614 279.805 95.3551 278.886 95.3551C277.967 95.3551 277.26 96.0614 277.26 96.9797C277.26 97.8979 277.967 98.6042 278.886 98.6042Z" fill="white" stroke="#231F20" stroke-miterlimit="10"/>
<path d="M281.855 95.567C281.996 95.4257 281.926 95.0726 281.643 94.79C281.36 94.5075 281.007 94.4369 280.865 94.6488C280.724 94.79 280.795 95.1432 281.077 95.4257C281.36 95.7083 281.714 95.7789 281.855 95.567Z" fill="white" stroke="#231F20" stroke-miterlimit="10"/>
<path d="M284.471 106.091C284.259 106.939 283.057 107.575 282.35 107.221C281.784 106.939 281.714 106.233 281.643 106.091C281.502 105.314 281.926 104.326 282.633 104.184C283.552 103.972 284.683 105.032 284.471 106.091Z" fill="#231F20" stroke="#231F20" stroke-width="0.5" stroke-miterlimit="10"/>
<path d="M282.774 104.396C282.774 104.396 282.986 105.173 283.41 105.526C283.834 105.879 283.905 105.032 283.905 105.032C283.905 105.032 283.622 104.608 282.774 104.396Z" fill="white" stroke="#231F20" stroke-width="0.2" stroke-miterlimit="10"/>
<path d="M283.269 104.467C283.269 104.467 283.198 105.102 282.633 105.385C282.067 105.738 282.067 104.679 282.067 104.679C282.067 104.679 282.633 104.326 283.269 104.467Z" fill="white" stroke="#231F20" stroke-width="0.2" stroke-miterlimit="10"/>
<path d="M270.827 103.054C270.827 103.054 268.918 100.582 268.211 98.6042C268.211 98.6042 267.928 97.4034 268.989 97.6153C268.989 97.6153 269.696 97.5447 273.796 99.8756C273.796 99.8756 274.574 100.229 274.715 101.006C274.715 101.006 274.927 102.348 272.665 103.478C272.736 103.478 271.887 104.184 270.827 103.054Z" fill="#FBB040" stroke="#231F20" stroke-width="0.5" stroke-miterlimit="10"/>
<path d="M272.806 99.8756C273.018 99.805 274.362 100.441 274.362 101.218C274.362 101.924 273.16 102.489 272.948 102.418C272.806 102.348 273.301 101.924 273.301 101.147C273.301 100.37 272.665 99.9462 272.806 99.8756Z" fill="#8D5D15"/>
<path d="M289.631 104.679C289.631 104.679 287.723 102.207 287.016 100.229C287.016 100.229 286.733 99.028 287.793 99.2399C287.793 99.2399 288.5 99.1693 292.6 101.5C292.6 101.5 293.378 101.853 293.519 102.63C293.519 102.63 293.732 103.972 291.469 105.102C291.54 105.102 290.692 105.809 289.631 104.679Z" fill="#FAA751" stroke="#231F20" stroke-width="0.5" stroke-miterlimit="10"/>
<path d="M291.611 101.571C291.823 101.5 293.166 102.136 293.166 102.913C293.166 103.619 291.964 104.184 291.752 104.114C291.611 104.043 292.106 103.619 292.106 102.842C292.106 102.065 291.469 101.571 291.611 101.571Z" fill="#8D5D15"/>
<path d="M278.886 112.802C279.027 112.943 278.32 114.144 277.26 114.144C276.27 114.144 275.563 113.013 275.705 112.872C275.775 112.731 276.341 113.367 277.26 113.367C278.179 113.367 278.745 112.66 278.886 112.802Z" fill="#8D5D15"/>
<path d="M284.117 112.802C284.188 112.943 283.552 114.144 282.491 114.144C281.502 114.144 280.795 113.013 280.936 112.872C281.007 112.731 281.572 113.367 282.491 113.367C283.41 113.225 283.976 112.66 284.117 112.802Z" fill="#8D5D15"/>
<path d="M289.49 112.802C289.561 112.943 288.924 114.144 287.864 114.144C286.874 114.144 286.167 113.013 286.309 112.872C286.379 112.731 286.945 113.367 287.864 113.367C288.854 113.225 289.419 112.66 289.49 112.802Z" fill="#8D5D15"/>
<path d="M295.004 112.802C295.075 112.943 294.438 114.144 293.378 114.144C292.388 114.144 291.681 113.013 291.823 112.872C291.894 112.731 292.459 113.367 293.378 113.367C294.297 113.225 294.863 112.66 295.004 112.802Z" fill="#8D5D15"/>
</g>
<defs>
<clipPath id="clip0_1_782">
<!-- <rect width="316" height="368" fill="white"/> -->
</clipPath>
</defs>
</svg>
